<svg width="930" height="794" viewBox="0 0 930 794" fill="none" xmlns="http://www.w3.org/2000/svg">
<g clip-path="url(#clip0)">
<path d="M837.248 441.08C837.097 452.914 836.555 466.172 835.34 480.141L869.427 437.637L869.667 438.302C866.877 428.709 862.749 419.558 857.404 411.117L857.674 411.743L837.248 441.08Z" fill="#57B894"/>
<path d="M837.271 439.004L857.058 410.586C851.369 402.016 844.556 395.38 836.775 391.333C836.371 391.122 835.964 390.926 835.558 390.731C835.861 393.935 837.511 412.749 837.271 439.004Z" fill="#57B894"/>
<path d="M873.69 521.498C874.528 516.542 875.178 511.598 875.641 506.664L824.236 547.038L824.167 546.682C823.394 549.594 822.587 552.456 821.747 555.269L873.569 520.713L873.69 521.498Z" fill="#57B894"/>
<path d="M830.1 519.851L876.107 477.213L876.287 477.95C875.695 464.766 873.544 451.698 869.878 439.02L835.141 482.333C833.943 495.421 832.262 507.927 830.1 519.851Z" fill="#57B894"/>
<path d="M834.267 481.598L772.727 420.442L772.994 419.695C768.003 427.66 763.829 436.11 760.536 444.914L830.568 511.333C832.236 500.952 833.426 490.924 834.267 481.598Z" fill="#57B894"/>
<path d="M828.962 520.624C829.432 518.089 829.874 515.569 830.287 513.066L759.996 446.402L760.256 445.65C759.093 448.752 758.002 451.954 756.983 455.255L757.238 454.5L828.962 520.624Z" fill="#57B894"/>
<path d="M824.604 544.988L875.58 504.95L875.729 505.715C876.534 496.772 876.735 487.785 876.33 478.816L829.701 522.031C828.214 529.975 826.515 537.627 824.604 544.988Z" fill="#57B894"/>
<path d="M752.098 517.91L809.738 584.731C813.649 575.965 817.031 566.972 819.865 557.802L750.496 492.9C750.345 501.524 750.771 510.149 751.773 518.716L752.098 517.91Z" fill="#57B894"/>
<path d="M834.576 390.729L835.043 390.487C822.943 384.895 810.276 386.304 798.465 393.366L836.324 439.011C836.576 410.605 834.605 391.01 834.576 390.729Z" fill="#57B894"/>
<path d="M820.279 560.047C817.669 568.302 814.613 576.408 811.122 584.331L863.418 553.319L863.517 554.092C867.182 546.995 869.932 539.463 871.703 531.675C872.386 528.612 872.992 525.545 873.524 522.474L821.083 557.441C820.816 558.312 820.552 559.187 820.279 560.047Z" fill="#57B894"/>
<path d="M836.301 441.127L797.574 394.435L797.87 393.721C789.009 399.175 780.648 407.82 773.392 419.079L834.431 479.737C835.623 465.925 836.154 452.823 836.301 441.127Z" fill="#57B894"/>
<path d="M820.361 556.193C823.728 545.058 826.492 533.749 828.642 522.317L756.742 456.03C755.381 460.509 754.161 465.157 753.084 469.973C751.602 476.874 750.752 483.897 750.545 490.953L820.311 556.226L820.361 556.193Z" fill="#57B894"/>
<path d="M894.424 627.91C886.759 636.928 877.885 646.793 868.04 656.777L921.403 645.782L921.164 646.447C925.133 637.28 927.791 627.598 929.058 617.689L928.867 618.343L894.424 627.91Z" fill="#57B894"/>
<path d="M925.788 589.294C925.611 588.873 925.423 588.463 925.234 588.054C923.424 590.714 912.695 606.257 895.765 626.325L929.129 617.058C930.214 606.83 929.199 597.374 925.788 589.294Z" fill="#57B894"/>
<path d="M816.994 700.9C814.541 702.65 812.094 704.34 809.653 705.97L871.606 712.408L871.198 713.09C875.004 709.807 878.659 706.414 882.162 702.91L816.82 701.219L816.994 700.9Z" fill="#57B894"/>
<path d="M838.676 684.02L901.306 680.523L900.974 681.207C908.927 670.675 915.605 659.238 920.868 647.135L866.488 658.339C857.218 667.654 847.947 676.214 838.676 684.02Z" fill="#57B894"/>
<path d="M818.41 699.873L883.208 701.551L882.835 702.234C889.159 695.86 895.046 689.067 900.455 681.9L836.978 685.444C830.767 690.613 824.577 695.423 818.41 699.873Z" fill="#57B894"/>
<path d="M741.28 736.357C741.711 735.867 742.147 735.368 742.596 734.848C755.629 731.984 768.269 727.56 780.243 721.671L779.309 675.194C779.762 673.98 780.198 672.757 780.618 671.526L781.613 721.002C790.216 716.745 798.556 711.976 806.588 706.721L795.601 620.674C796.046 620.408 796.501 620.135 796.964 619.855L807.937 705.792L807.996 705.798C817.691 699.369 827.033 692.422 835.981 684.989L824.542 600.356C824.983 599.992 825.425 599.624 825.867 599.253L837.306 683.889C839.286 682.236 841.233 680.577 843.148 678.913L832.789 593.168C833.228 592.763 833.666 592.356 834.104 591.945L844.47 677.757C852.375 670.825 859.688 663.862 866.284 657.215L857.893 570.862L858.575 570.457C856.212 571.222 853.82 572.09 851.408 573.04C855.727 567.488 859.56 561.574 862.863 555.362L810.067 586.671C806.727 594.02 802.905 601.141 798.627 607.988C797.689 608.98 796.756 609.988 795.836 611.021L795.97 612.072C795.56 612.681 795.148 613.286 794.734 613.886L794.556 612.489C794.031 613.094 793.511 613.711 792.992 614.329C799.238 605.453 804.635 596.008 809.111 586.12L751.893 519.788C752.612 525.95 753.573 532.139 754.707 538.268C749.304 530.544 742.886 523.583 735.626 517.573L736.076 518.084L725.718 552.298C729.232 563.599 732.815 576.376 735.977 590.036L754.99 539.783C755.135 540.542 755.281 541.301 755.431 542.059L736.465 592.183C739.371 605 741.638 617.413 743.268 629.422L767.05 586.818C767.234 587.4 767.418 587.979 767.602 588.553L743.562 631.619C744.603 639.632 745.352 647.435 745.81 655.026L775.348 610.984C775.55 611.527 775.749 612.06 775.945 612.582L746.095 657.09L745.919 656.772C746.083 659.781 746.201 662.752 746.271 665.687L779.994 622.985C780.218 623.539 780.426 624.05 780.619 624.518L746.312 667.959C746.326 668.869 746.346 669.783 746.352 670.685C746.422 679.342 746.02 687.997 745.15 696.61L748.426 692.885C747.846 694.29 747.281 695.676 746.732 697.043L744.869 699.161C744.721 700.444 744.559 701.715 744.388 702.979C743.753 704.618 743.143 706.217 742.556 707.775C743.033 704.846 743.444 701.898 743.789 698.933L668.87 653.535C690.451 700.539 728.495 744.237 730.929 747.01C732.566 743.477 734.042 739.864 735.358 736.17C735.805 736.101 736.252 736.027 736.698 735.954C736.544 736.397 736.393 736.843 736.235 737.283C736.001 737.321 735.767 737.365 735.534 737.402C735.727 737.444 735.93 737.488 736.142 737.534C735.205 740.121 734.205 742.649 733.142 745.117C734.641 743.604 736.887 741.266 739.606 738.241C756.816 741.586 802.985 748.184 841.26 732.267L780.628 722.706C768.13 728.873 754.912 733.459 741.28 736.357V736.357ZM778.966 658.154L780.318 656.617L780.362 658.8L779.01 660.337L778.966 658.154Z" fill="#57B894"/>
<path d="M924.479 587.426L924.994 587.537C919.241 575.513 908.586 568.518 894.985 566.424L895.031 625.727C913.343 604.01 924.322 587.661 924.479 587.426Z" fill="#57B894"/>
<path d="M805.474 708.714C798.2 713.407 790.675 717.701 782.933 721.577L842.99 731.047L842.574 731.705C849.923 728.577 856.846 724.53 863.177 719.661C865.656 717.737 868.08 715.762 870.448 713.736L807.756 707.22C806.995 707.72 806.234 708.225 805.474 708.714Z" fill="#57B894"/>
<path d="M867.597 655.886C877.324 646.009 886.09 636.256 893.664 627.342L893.617 566.679L894.301 566.318C883.997 564.867 872.044 566.193 859.274 570.236L867.597 655.886Z" fill="#57B894"/>
<path d="M735.131 517.175C727.073 510.783 718.543 506.578 709.892 505.134C709.442 505.059 708.995 504.998 708.548 504.938C709.826 507.891 717.21 525.274 725.098 550.317L735.131 517.175Z" fill="#57B894"/>
<path d="M735.407 591.754L657.977 552.614L658 551.821C655.715 560.94 654.358 570.265 653.948 579.657L741.08 621.176C739.457 610.788 737.489 600.883 735.407 591.754Z" fill="#57B894"/>
<path d="M741.348 622.911L653.894 581.239L653.908 580.443C653.762 583.752 653.714 587.134 653.764 590.589L653.773 589.793L742.424 630.509C742.088 627.952 741.729 625.419 741.348 622.911Z" fill="#57B894"/>
<path d="M745.265 668.678L659.231 628.396C661.753 636.644 664.825 644.715 668.426 652.553L668.486 651.685L743.957 697.418C744.967 687.873 745.404 678.275 745.265 668.678V668.678Z" fill="#57B894"/>
<path d="M707.613 505.24L707.983 504.865C694.747 503.287 683.135 508.542 674.086 518.909L724.2 550.616C715.659 523.523 707.728 505.498 707.613 505.24Z" fill="#57B894"/>
<path d="M724.832 552.636L673.568 520.201L673.63 519.43C666.888 527.356 661.609 538.162 658.188 551.112L734.987 589.933C731.852 576.43 728.307 563.805 724.832 552.636Z" fill="#57B894"/>
<path d="M745.239 666.994C744.999 655.364 744.132 643.755 742.644 632.217L653.775 591.401C653.865 596.082 654.142 600.878 654.606 605.791C655.329 612.813 656.692 619.754 658.677 626.529L745.202 667.041L745.239 666.994Z" fill="#57B894"/>
<path d="M672.822 460.961L414.714 428.426C403.016 331.116 420.69 236.115 450.865 141.64L708.972 174.175C670.024 266.859 658.592 362.522 672.822 460.961Z" fill="#F2F2F2"/>
<path d="M644.659 195.864L486.926 175.982L484.79 192.928L642.523 212.811L644.659 195.864Z" fill="#F6AD55"/>
<path opacity="0.3" d="M664.251 240.049L450.465 213.101L449.397 221.574L663.183 248.522L664.251 240.049Z" fill="#F6AD55"/>
<path opacity="0.3" d="M660.8 267.424L447.014 240.476L445.946 248.949L659.732 275.897L660.8 267.424Z" fill="#F6AD55"/>
<path opacity="0.3" d="M657.349 294.799L443.563 267.851L442.495 276.324L656.281 303.272L657.349 294.799Z" fill="#F6AD55"/>
<path opacity="0.3" d="M653.899 322.174L440.113 295.226L439.044 303.699L652.831 330.647L653.899 322.174Z" fill="#F6AD55"/>
<path opacity="0.3" d="M650.448 349.549L436.662 322.601L435.594 331.074L649.38 358.022L650.448 349.549Z" fill="#F6AD55"/>
<path opacity="0.3" d="M646.997 376.924L433.211 349.976L432.143 358.449L645.929 385.398L646.997 376.924Z" fill="#F6AD55"/>
<path opacity="0.3" d="M643.546 404.299L429.76 377.351L428.692 385.824L642.478 412.772L643.546 404.299Z" fill="#F6AD55"/>
<path d="M550.594 365.093L309.119 268.306C322.424 171.202 363.562 83.7654 416.66 0L658.136 96.7872C597.003 176.6 561.737 266.257 550.594 365.093Z" fill="#E6E6E6"/>
<path d="M590.427 101.497L442.859 42.3495L436.504 58.2039L584.072 117.352L590.427 101.497Z" fill="#F6AD55"/>
<path opacity="0.3" d="M598.201 149.201L398.191 69.0342L395.014 76.9615L595.024 157.129L598.201 149.201Z" fill="#F6AD55"/>
<path opacity="0.3" d="M587.936 174.812L387.926 94.6453L384.749 102.572L584.758 182.74L587.936 174.812Z" fill="#F6AD55"/>
<path opacity="0.3" d="M577.67 200.423L377.661 120.256L374.483 128.184L574.493 208.351L577.67 200.423Z" fill="#F6AD55"/>
<path opacity="0.3" d="M567.405 226.034L367.395 145.867L364.218 153.795L564.228 233.962L567.405 226.034Z" fill="#F6AD55"/>
<path opacity="0.3" d="M557.14 251.645L357.13 171.478L353.953 179.405L553.962 259.573L557.14 251.645Z" fill="#F6AD55"/>
<path opacity="0.3" d="M546.875 277.256L346.865 197.089L343.687 205.017L543.697 285.184L546.875 277.256Z" fill="#F6AD55"/>
<path opacity="0.3" d="M536.609 302.867L336.599 222.7L333.422 230.628L533.432 310.795L536.609 302.867Z" fill="#F6AD55"/>
<path d="M490.877 388.403H230.727C206.95 293.32 212.604 196.855 230.727 99.3476H490.877C463.826 196.175 464.448 292.516 490.877 388.403Z" fill="#F2F2F2"/>
<path d="M429.781 128.91H270.8V145.991H429.781V128.91Z" fill="#F6AD55"/>
<path opacity="0.3" d="M454.745 170.298H239.267V178.838H454.745V170.298Z" fill="#F6AD55"/>
<path opacity="0.3" d="M454.745 197.889H239.267V206.43H454.745V197.889Z" fill="#F6AD55"/>
<path opacity="0.3" d="M454.745 225.481H239.267V234.021H454.745V225.481Z" fill="#F6AD55"/>
<path opacity="0.3" d="M454.745 253.073H239.267V261.613H454.745V253.073Z" fill="#F6AD55"/>
<path opacity="0.3" d="M454.745 280.664H239.267V289.205H454.745V280.664Z" fill="#F6AD55"/>
<path opacity="0.3" d="M454.745 308.256H239.267V316.796H454.745V308.256Z" fill="#F6AD55"/>
<path opacity="0.3" d="M454.745 335.848H239.267V344.388H454.745V335.848Z" fill="#F6AD55"/>
<path d="M315.522 330.698L225.897 261.021C225 259.461 223.708 258.166 222.151 257.265C220.594 256.364 218.827 255.89 217.028 255.89H168.655C165.942 255.89 163.34 256.968 161.421 258.886C159.502 260.805 158.424 263.407 158.424 266.121V693.062C158.424 701.863 161.921 710.304 168.144 716.527C174.367 722.75 182.808 726.247 191.609 726.247H688.172C692.53 726.247 696.845 725.388 700.871 723.721C704.897 722.053 708.555 719.609 711.637 716.527C714.719 713.446 717.163 709.787 718.831 705.761C720.498 701.735 721.357 697.42 721.357 693.062V360.861C721.357 352.861 718.179 345.189 712.522 339.532C706.866 333.876 699.194 330.698 691.194 330.698H315.522Z" fill="#3F3D56"/>
<path d="M704.469 429.709H614.4V461.233H704.469V429.709Z" fill="#F6AD55"/>
<path d="M0 791.111C0 791.111 411.94 555.524 909.376 791.111Z" fill="#F2F2F2"/>
</g>
<defs>
<clipPath id="clip0">
<rect width="929.545" height="793.07" fill="white"/>
</clipPath>
</defs>
</svg>
