<svg width="199" height="200" viewBox="0 0 199 200" fill="none" xmlns="http://www.w3.org/2000/svg">
<path fill-rule="evenodd" clip-rule="evenodd" d="M198.882 115C191.645 163.113 150.13 200 100 200C44.7715 200 0 155.228 0 100C0 44.7715 44.7715 0 100 0C150.13 0 191.645 36.8874 198.882 85H100V115H198.882Z" fill="#DD6B20"/>
<path d="M99 200C99 200 167.246 152.74 166.999 98C166.999 60.5065 136.493 30 99 30C61.5069 30 31.0007 60.5065 31.0007 97.9575C30.7542 152.74 96.416 198.164 99 200Z" fill="white"/>
<circle cx="99" cy="100" r="45" fill="#DD6B20"/>
<path d="M49 85H164V115H49V85Z" fill="white"/>
<path d="M97 115H189V145H97V115Z" fill="#DD6B20"/>
</svg>
