<svg width="230" height="100" viewBox="0 0 230 100" fill="none" xmlns="http://www.w3.org/2000/svg">
<g filter="url(#filter0_i)">
<path d="M48.284 44.04C47.7427 44.432 47.2107 44.7587 46.688 45.02C46.128 45.3 45.54 45.524 44.924 45.692C44.2707 45.8787 43.5893 46.0093 42.88 46.084C42.0773 46.1773 41.3027 46.224 40.556 46.224C39.1187 46.224 37.7653 45.9627 36.496 45.44C35.2267 44.9173 34.1533 44.208 33.276 43.312C32.3427 42.36 31.6333 41.268 31.148 40.036C30.644 38.7667 30.392 37.376 30.392 35.864C30.392 34.296 30.6347 32.9053 31.12 31.692C31.624 30.4227 32.3333 29.3307 33.248 28.416C34.1253 27.52 35.2267 26.8107 36.552 26.288C37.784 25.8213 39.1747 25.5693 40.724 25.532H40.92C43.048 25.532 45.4373 26.0173 48.088 26.988V32.14H46.464C46.128 32.14 45.9133 31.972 45.82 31.636C45.764 31.3747 45.68 30.6467 45.568 29.452C44.1867 28.9853 42.5907 28.752 40.78 28.752C39.8093 28.752 38.9133 28.92 38.092 29.256C37.2707 29.592 36.58 30.068 36.02 30.684C35.4413 31.3187 35.0027 32.0653 34.704 32.924C34.3867 33.82 34.228 34.8 34.228 35.864C34.228 37.0587 34.396 38.104 34.732 39C35.068 39.9333 35.5253 40.6987 36.104 41.296C36.7013 41.912 37.4013 42.388 38.204 42.724C39.0253 43.06 39.912 43.228 40.864 43.228C41.648 43.228 42.3853 43.1533 43.076 43.004C43.692 42.8547 44.2893 42.64 44.868 42.36V38.692H42.348C42.1053 38.692 41.9093 38.6173 41.76 38.468C41.6293 38.3373 41.564 38.1787 41.564 37.992V35.864H48.284V44.04ZM66.8158 43.48C67.2825 43.592 67.5158 43.8813 67.5158 44.348V46H63.7358C63.3812 46 63.1012 45.9347 62.8958 45.804C62.6905 45.6733 62.5038 45.4867 62.3358 45.244L58.0798 38.748C57.9305 38.524 57.7532 38.356 57.5478 38.244C57.3425 38.132 57.0625 38.076 56.7078 38.076H55.2798V43.228L56.1198 43.368C56.2132 43.3867 56.2878 43.4053 56.3438 43.424C56.4185 43.4427 56.4838 43.452 56.5398 43.452L56.7078 43.48C57.1745 43.592 57.4078 43.8813 57.4078 44.348V46H49.3998V44.348C49.3998 43.8813 49.6332 43.592 50.0998 43.48L50.2678 43.452L50.6878 43.368L51.5278 43.228V28.528L50.6878 28.388C50.5945 28.3693 50.5105 28.3507 50.4358 28.332C50.3798 28.3133 50.3238 28.304 50.2678 28.304L50.0998 28.276C49.6332 28.164 49.3998 27.8747 49.3998 27.408V25.756H57.4918C58.8732 25.756 60.0585 25.896 61.0478 26.176C61.9998 26.456 62.8025 26.8573 63.4558 27.38C64.1092 27.9213 64.5758 28.5373 64.8558 29.228C65.1545 29.9373 65.3038 30.7213 65.3038 31.58C65.3038 32.2147 65.2012 32.8587 64.9958 33.512C64.8278 34.0533 64.5385 34.604 64.1278 35.164C63.7918 35.6307 63.3252 36.06 62.7278 36.452C62.1492 36.8253 61.5145 37.124 60.8238 37.348C61.3092 37.628 61.7198 38.02 62.0558 38.524L65.2478 43.228L66.1158 43.368C66.2092 43.3867 66.2932 43.4053 66.3678 43.424C66.4612 43.4427 66.5358 43.452 66.5918 43.452L66.8158 43.48ZM59.2838 35.108C59.8065 34.94 60.2452 34.6973 60.5998 34.38C60.9172 34.0813 61.1692 33.708 61.3558 33.26C61.5238 32.8307 61.6078 32.364 61.6078 31.86C61.6078 30.8333 61.2718 30.04 60.5998 29.48C59.9465 28.9387 58.9105 28.668 57.4918 28.668H55.2798V35.388H57.4358C58.0705 35.388 58.6865 35.2947 59.2838 35.108ZM89.6798 43.844C90.0345 43.9747 90.2118 44.2173 90.2118 44.572V46H83.3798V44.572C83.3798 44.2547 83.5665 44.012 83.9398 43.844L84.4998 43.62L83.3798 40.568H75.3158L74.1958 43.62L74.7558 43.844C75.1291 44.012 75.3158 44.2547 75.3158 44.572V46H68.4838V44.572C68.4838 44.2547 68.6705 44.012 69.0438 43.844L70.5838 43.2L77.4158 25.756H81.2798L88.1398 43.2L89.6798 43.844ZM82.4278 37.908L80.1038 31.608C79.8798 30.992 79.6278 30.1987 79.3478 29.228L79.0958 30.096C78.9465 30.6 78.7785 31.1133 78.5918 31.636L76.2958 37.908H82.4278ZM104.254 35.528C107.036 36.144 108.426 37.6467 108.426 40.036C108.426 40.8947 108.258 41.688 107.922 42.416C107.586 43.1627 107.11 43.7973 106.494 44.32C105.916 44.824 105.15 45.2347 104.198 45.552C103.302 45.8507 102.257 46 101.062 46H91.2905V44.348C91.2905 43.8813 91.5238 43.592 91.9905 43.48L92.1585 43.452C92.2145 43.452 92.2705 43.4427 92.3265 43.424C92.4011 43.4053 92.4851 43.3867 92.5785 43.368L93.4185 43.228V28.528L92.5785 28.388C92.4851 28.3693 92.4011 28.3507 92.3265 28.332C92.2705 28.3133 92.2145 28.304 92.1585 28.304L91.9905 28.276C91.5238 28.164 91.2905 27.8747 91.2905 27.408V25.756H100.39C101.734 25.756 102.864 25.8773 103.778 26.12C104.749 26.3813 105.524 26.7453 106.102 27.212C106.7 27.6787 107.138 28.248 107.418 28.92C107.698 29.592 107.838 30.3293 107.838 31.132C107.838 31.636 107.773 32.0933 107.642 32.504C107.512 32.9147 107.288 33.3253 106.97 33.736C106.69 34.072 106.317 34.408 105.85 34.744C105.44 35.024 104.908 35.2853 104.254 35.528ZM100.194 34.52C101.482 34.52 102.453 34.2867 103.106 33.82C103.76 33.3533 104.086 32.6067 104.086 31.58C104.086 30.5347 103.788 29.788 103.19 29.34C102.612 28.892 101.678 28.668 100.39 28.668H97.1705V34.52H100.194ZM104.506 41.156C104.637 40.82 104.702 40.4187 104.702 39.952C104.702 39.56 104.628 39.168 104.478 38.776C104.329 38.4027 104.114 38.104 103.834 37.88C103.554 37.656 103.172 37.4693 102.686 37.32C102.238 37.1893 101.669 37.124 100.978 37.124H97.1705V43.06H101.006C101.716 43.06 102.304 42.976 102.77 42.808C103.237 42.64 103.61 42.416 103.89 42.136C104.189 41.8373 104.394 41.5107 104.506 41.156ZM135.138 27.408C135.138 27.8747 134.904 28.164 134.438 28.276L134.27 28.304C134.214 28.304 134.148 28.3133 134.074 28.332C134.018 28.3507 133.943 28.3693 133.85 28.388L133.038 28.528L127.326 38.132V43.228L128.138 43.368C128.231 43.3867 128.306 43.4053 128.362 43.424C128.436 43.4427 128.502 43.452 128.558 43.452L128.726 43.48C129.192 43.592 129.426 43.8813 129.426 44.348V46H121.418V44.348C121.418 43.8813 121.651 43.592 122.118 43.48C122.192 43.48 122.258 43.4707 122.314 43.452L122.734 43.368L123.546 43.228V38.132L117.834 28.528L116.994 28.388C116.9 28.3693 116.816 28.3507 116.742 28.332C116.686 28.3133 116.63 28.304 116.574 28.304L116.406 28.276C115.939 28.164 115.706 27.8747 115.706 27.408V25.756H123.266V27.408C123.266 27.8747 123.032 28.164 122.566 28.276L122.454 28.304L122.174 28.388L121.782 28.472L124.47 33.372C124.619 33.6333 124.806 34.0067 125.03 34.492C125.123 34.6973 125.198 34.8933 125.254 35.08C125.328 35.2667 125.394 35.4253 125.45 35.556C125.543 35.2573 125.683 34.9027 125.87 34.492C126.094 34.0067 126.28 33.6333 126.43 33.372L129.09 28.472L128.67 28.388C128.614 28.3693 128.567 28.3507 128.53 28.332C128.492 28.3133 128.455 28.304 128.418 28.304C128.38 28.2853 128.334 28.276 128.278 28.276C127.811 28.164 127.578 27.8747 127.578 27.408V25.756H135.138V27.408ZM156.49 35.864C156.49 37.8613 156.052 39.644 155.174 41.212C154.316 42.78 153.102 44.012 151.534 44.908C149.985 45.7853 148.221 46.224 146.242 46.224C144.264 46.224 142.49 45.7853 140.922 44.908C139.373 44.0307 138.16 42.808 137.282 41.24C136.405 39.672 135.966 37.88 135.966 35.864C135.966 33.848 136.405 32.056 137.282 30.488C138.16 28.92 139.373 27.7067 140.922 26.848C142.49 25.9707 144.264 25.532 146.242 25.532C148.24 25.532 150.013 25.98 151.562 26.876C153.13 27.772 154.344 29.004 155.202 30.572C156.061 32.14 156.49 33.904 156.49 35.864ZM152.626 35.864C152.626 33.7173 152.066 32 150.946 30.712C149.845 29.4053 148.277 28.752 146.242 28.752C144.17 28.752 142.574 29.4053 141.454 30.712C140.353 32.0187 139.802 33.736 139.802 35.864C139.802 38.0293 140.362 39.7653 141.482 41.072C142.602 42.36 144.189 43.004 146.242 43.004C148.296 43.004 149.873 42.3507 150.974 41.044C152.076 39.7373 152.626 38.0107 152.626 35.864ZM178.35 27.408C178.35 27.8747 178.117 28.164 177.65 28.276L177.482 28.304C177.426 28.304 177.361 28.3133 177.286 28.332C177.23 28.3507 177.156 28.3693 177.062 28.388L176.222 28.528V37.88C176.222 39.0933 176.026 40.204 175.634 41.212C175.224 42.276 174.673 43.1627 173.982 43.872C173.254 44.6 172.368 45.1787 171.322 45.608C170.314 46.0187 169.148 46.224 167.822 46.224C166.497 46.224 165.33 46.0187 164.322 45.608C163.314 45.1973 162.437 44.6187 161.69 43.872C160.962 43.1253 160.402 42.2387 160.01 41.212C159.637 40.26 159.45 39.1493 159.45 37.88V28.528L158.61 28.388C158.517 28.3693 158.433 28.3507 158.358 28.332C158.302 28.3133 158.246 28.304 158.19 28.304L158.022 28.276C157.556 28.164 157.322 27.8747 157.322 27.408V25.756H165.442V27.408C165.442 27.8747 165.209 28.164 164.742 28.276L164.546 28.304C164.49 28.304 164.425 28.3133 164.35 28.332C164.276 28.3507 164.182 28.3693 164.07 28.388L163.202 28.528V37.852C163.202 38.692 163.305 39.392 163.51 39.952C163.697 40.5493 164.005 41.0907 164.434 41.576C164.789 41.9867 165.265 42.3227 165.862 42.584C166.404 42.8267 167.057 42.948 167.822 42.948C168.588 42.948 169.241 42.8267 169.782 42.584C170.417 42.304 170.902 41.968 171.238 41.576C171.593 41.1653 171.892 40.6333 172.134 39.98C172.358 39.2707 172.47 38.5707 172.47 37.88V28.528L171.602 28.388C171.49 28.3693 171.397 28.3507 171.322 28.332C171.248 28.3133 171.182 28.304 171.126 28.304L170.93 28.276C170.464 28.164 170.23 27.8747 170.23 27.408V25.756H178.35V27.408ZM196.753 43.48C197.22 43.592 197.453 43.8813 197.453 44.348V46H193.673C193.319 46 193.039 45.9347 192.833 45.804C192.628 45.6733 192.441 45.4867 192.273 45.244L188.017 38.748C187.868 38.524 187.691 38.356 187.485 38.244C187.28 38.132 187 38.076 186.645 38.076H185.217V43.228L186.057 43.368C186.151 43.3867 186.225 43.4053 186.281 43.424C186.356 43.4427 186.421 43.452 186.477 43.452L186.645 43.48C187.112 43.592 187.345 43.8813 187.345 44.348V46H179.337V44.348C179.337 43.8813 179.571 43.592 180.037 43.48L180.205 43.452L180.625 43.368L181.465 43.228V28.528L180.625 28.388C180.532 28.3693 180.448 28.3507 180.373 28.332C180.317 28.3133 180.261 28.304 180.205 28.304L180.037 28.276C179.571 28.164 179.337 27.8747 179.337 27.408V25.756H187.429C188.811 25.756 189.996 25.896 190.985 26.176C191.937 26.456 192.74 26.8573 193.393 27.38C194.047 27.9213 194.513 28.5373 194.793 29.228C195.092 29.9373 195.241 30.7213 195.241 31.58C195.241 32.2147 195.139 32.8587 194.933 33.512C194.765 34.0533 194.476 34.604 194.065 35.164C193.729 35.6307 193.263 36.06 192.665 36.452C192.087 36.8253 191.452 37.124 190.761 37.348C191.247 37.628 191.657 38.02 191.993 38.524L195.185 43.228L196.053 43.368C196.147 43.3867 196.231 43.4053 196.305 43.424C196.399 43.4427 196.473 43.452 196.529 43.452L196.753 43.48ZM189.221 35.108C189.744 34.94 190.183 34.6973 190.537 34.38C190.855 34.0813 191.107 33.708 191.293 33.26C191.461 32.8307 191.545 32.364 191.545 31.86C191.545 30.8333 191.209 30.04 190.537 29.48C189.884 28.9387 188.848 28.668 187.429 28.668H185.217V35.388H187.373C188.008 35.388 188.624 35.2947 189.221 35.108ZM45.456 61.076H43.832C43.496 61.076 43.2813 60.8987 43.188 60.544C43.0947 59.816 43.0293 59.2187 42.992 58.752H36.468V64.352H43.328V67.264H36.468V72.976H42.992C43.0293 72.5093 43.0947 71.912 43.188 71.184C43.2813 70.8293 43.496 70.652 43.832 70.652H45.456V76H30.56V74.348C30.56 73.8813 30.7933 73.592 31.26 73.48L31.428 73.452C31.484 73.452 31.54 73.4427 31.596 73.424C31.6707 73.4053 31.7547 73.3867 31.848 73.368L32.688 73.228V58.528L31.848 58.388C31.7547 58.3693 31.6707 58.3507 31.596 58.332C31.54 58.3133 31.484 58.304 31.428 58.304L31.26 58.276C30.7933 58.164 30.56 57.8747 30.56 57.408V55.756H45.456V61.076ZM68.1981 57.408C68.1981 57.8747 67.9648 58.164 67.4981 58.276L67.3301 58.304C67.2928 58.304 67.2368 58.3133 67.1621 58.332C67.1061 58.3507 67.0315 58.3693 66.9381 58.388L66.1261 58.528L59.0701 76H55.6821L48.5981 58.528L47.8141 58.388C47.7208 58.3693 47.6368 58.3507 47.5621 58.332C47.5061 58.3133 47.4501 58.304 47.3941 58.304L47.2261 58.276C46.7595 58.164 46.5261 57.8747 46.5261 57.408V55.756H54.0861V57.408C54.0861 57.8747 53.8528 58.164 53.3861 58.276C53.3301 58.276 53.2835 58.2853 53.2461 58.304L52.9661 58.388L52.5181 58.5L56.5501 68.972C56.6808 69.2707 56.8301 69.7093 56.9981 70.288L57.4181 71.8C57.6421 70.7733 57.9128 69.8307 58.2301 68.972L62.2341 58.5L61.7861 58.388L61.4781 58.304C61.4408 58.2853 61.3941 58.276 61.3381 58.276C60.8715 58.164 60.6381 57.8747 60.6381 57.408V55.756H68.1981V57.408ZM84.1201 61.076H82.4961C82.1601 61.076 81.9454 60.8987 81.8521 60.544C81.7587 59.816 81.6934 59.2187 81.6561 58.752H75.1321V64.352H81.9921V67.264H75.1321V72.976H81.6561C81.6934 72.5093 81.7587 71.912 81.8521 71.184C81.9454 70.8293 82.1601 70.652 82.4961 70.652H84.1201V76H69.2241V74.348C69.2241 73.8813 69.4574 73.592 69.9241 73.48L70.0921 73.452C70.1481 73.452 70.2041 73.4427 70.2601 73.424C70.3347 73.4053 70.4187 73.3867 70.5121 73.368L71.3521 73.228V58.528L70.5121 58.388C70.4187 58.3693 70.3347 58.3507 70.2601 58.332C70.2041 58.3133 70.1481 58.304 70.0921 58.304L69.9241 58.276C69.4574 58.164 69.2241 57.8747 69.2241 57.408V55.756H84.1201V61.076ZM106.61 57.408C106.61 57.8747 106.377 58.164 105.91 58.276L105.742 58.304C105.686 58.304 105.621 58.3133 105.546 58.332C105.49 58.3507 105.416 58.3693 105.322 58.388L104.51 58.528V76H102.55C102.289 76 102.046 75.9533 101.822 75.86C101.636 75.7853 101.44 75.6173 101.234 75.356L90.6502 61.888C90.6875 62.2987 90.7062 62.588 90.7062 62.756L90.7342 63.568V73.228L92.5542 73.48C93.0209 73.592 93.2542 73.8813 93.2542 74.348V76H85.3022V74.348C85.3022 73.8813 85.5355 73.592 86.0022 73.48L86.1702 73.452L86.5902 73.368L87.4302 73.228V58.528L86.5902 58.388C86.4969 58.3693 86.4129 58.3507 86.3382 58.332C86.2822 58.3133 86.2262 58.304 86.1702 58.304L86.0022 58.276C85.5355 58.164 85.3022 57.8747 85.3022 57.408V55.756H89.3902L89.8102 55.784C89.9409 55.784 90.0435 55.812 90.1182 55.868C90.1929 55.8867 90.2769 55.9427 90.3702 56.036L90.6502 56.372L101.29 69.896L101.206 68.944C101.188 68.7387 101.178 68.44 101.178 68.048V58.528L99.3582 58.276C98.8915 58.164 98.6582 57.8747 98.6582 57.408V55.756H106.61V57.408ZM124.303 60.544H122.707C122.353 60.544 122.129 60.3667 122.035 60.012C121.979 59.6947 121.933 59.312 121.895 58.864H117.779V73.228L118.591 73.368C118.685 73.3867 118.759 73.4053 118.815 73.424C118.89 73.4427 118.955 73.452 119.011 73.452L119.179 73.48C119.665 73.592 119.907 73.8813 119.907 74.348V76H111.899V74.348C111.899 73.8813 112.133 73.592 112.599 73.48L112.767 73.452C112.823 73.452 112.879 73.4427 112.935 73.424C113.01 73.4053 113.094 73.3867 113.187 73.368L113.999 73.228V58.836H109.883C109.846 59.3213 109.799 59.7133 109.743 60.012C109.65 60.3667 109.435 60.544 109.099 60.544H107.475V55.756H124.303V60.544Z" fill="#1A202C"/>
</g>
<rect x="130" y="55" width="65" height="25" fill="#F6AD55"/>
<path d="M132.624 74.368C132.624 74.096 132.672 73.856 132.768 73.648C132.864 73.424 132.992 73.232 133.152 73.072C133.312 72.912 133.504 72.784 133.728 72.688C133.952 72.592 134.192 72.544 134.448 72.544C134.704 72.544 134.944 72.592 135.168 72.688C135.392 72.784 135.584 72.912 135.744 73.072C135.904 73.232 136.032 73.424 136.128 73.648C136.224 73.856 136.272 74.096 136.272 74.368C136.272 74.624 136.224 74.864 136.128 75.088C136.032 75.296 135.904 75.48 135.744 75.64C135.584 75.8 135.392 75.928 135.168 76.024C134.96 76.12 134.728 76.168 134.472 76.168C134.216 76.168 133.976 76.12 133.752 76.024C133.496 75.912 133.296 75.784 133.152 75.64C132.992 75.48 132.864 75.296 132.768 75.088C132.672 74.864 132.624 74.624 132.624 74.368ZM150.483 74.152C150.099 74.584 149.747 74.912 149.427 75.136C149.107 75.344 148.707 75.552 148.227 75.76C147.875 75.888 147.451 75.992 146.955 76.072C146.571 76.136 146.131 76.168 145.635 76.168C144.851 76.168 144.139 76.032 143.499 75.76C142.827 75.472 142.243 75.056 141.747 74.512C141.219 73.936 140.819 73.272 140.547 72.52C140.259 71.72 140.115 70.816 140.115 69.808C140.115 68.896 140.243 68.064 140.499 67.312C140.771 66.544 141.155 65.872 141.651 65.296C142.147 64.736 142.771 64.296 143.523 63.976C144.291 63.656 145.147 63.496 146.091 63.496C147.115 63.496 148.411 63.792 149.979 64.384L149.955 68.176H148.587C148.299 68.176 148.115 68.024 148.035 67.72L147.843 65.992C147.251 65.832 146.723 65.752 146.259 65.752C145.731 65.752 145.275 65.848 144.891 66.04C144.491 66.232 144.171 66.496 143.931 66.832C143.643 67.232 143.443 67.664 143.331 68.128C143.203 68.672 143.139 69.232 143.139 69.808C143.139 70.464 143.211 71.048 143.355 71.56C143.499 72.088 143.699 72.52 143.955 72.856C144.227 73.192 144.547 73.456 144.915 73.648C145.315 73.824 145.739 73.912 146.187 73.912C146.683 73.912 147.067 73.856 147.339 73.744C147.691 73.6 147.939 73.472 148.083 73.36C148.163 73.296 148.243 73.24 148.323 73.192C148.419 73.128 148.515 73.056 148.611 72.976C148.739 72.864 148.899 72.808 149.091 72.808C149.347 72.808 149.531 72.896 149.643 73.072L150.483 74.152ZM160.131 63.496C161.011 63.496 161.843 63.648 162.627 63.952C163.395 64.256 164.035 64.672 164.547 65.2C165.059 65.728 165.459 66.392 165.747 67.192C166.035 67.976 166.179 68.848 166.179 69.808C166.179 70.768 166.035 71.648 165.747 72.448C165.443 73.264 165.043 73.936 164.547 74.464C164.019 75.024 163.379 75.448 162.627 75.736C161.891 76.024 161.059 76.168 160.131 76.168C159.203 76.168 158.363 76.024 157.611 75.736C156.859 75.448 156.219 75.024 155.691 74.464C155.131 73.888 154.715 73.216 154.443 72.448C154.155 71.648 154.011 70.768 154.011 69.808C154.011 68.848 154.155 67.976 154.443 67.192C154.715 66.456 155.131 65.792 155.691 65.2C156.203 64.672 156.843 64.256 157.611 63.952C158.395 63.648 159.235 63.496 160.131 63.496ZM160.131 73.888C161.155 73.888 161.907 73.544 162.387 72.856C162.883 72.136 163.131 71.128 163.131 69.832C163.131 68.536 162.883 67.528 162.387 66.808C161.907 66.104 161.155 65.752 160.131 65.752C159.107 65.752 158.339 66.104 157.827 66.808C157.315 67.512 157.059 68.528 157.059 69.856C157.059 71.152 157.315 72.152 157.827 72.856C158.323 73.544 159.091 73.888 160.131 73.888ZM190.229 73.84C190.629 73.936 190.829 74.184 190.829 74.584V76H186.053V68.176C186.053 67.376 185.885 66.784 185.549 66.4C185.213 66 184.709 65.8 184.037 65.8C183.765 65.8 183.477 65.856 183.173 65.968C182.917 66.064 182.693 66.208 182.501 66.4C182.341 66.56 182.189 66.808 182.045 67.144C181.933 67.416 181.877 67.76 181.877 68.176V73.624L182.573 73.744L182.933 73.816L183.077 73.84C183.477 73.936 183.677 74.184 183.677 74.584V76H178.901V68.176C178.901 67.36 178.733 66.76 178.397 66.376C178.061 65.992 177.573 65.8 176.933 65.8C176.501 65.8 176.101 65.904 175.733 66.112C175.397 66.304 175.053 66.6 174.701 67V73.624L175.397 73.744L175.757 73.816L175.901 73.84C176.301 73.936 176.501 74.184 176.501 74.584V76H169.925V74.584C169.925 74.184 170.125 73.936 170.525 73.84L170.669 73.816C170.717 73.816 170.765 73.808 170.813 73.792C170.877 73.776 170.949 73.76 171.029 73.744L171.725 73.624V66.064L171.029 65.944C170.949 65.928 170.877 65.912 170.813 65.896C170.765 65.88 170.717 65.872 170.669 65.872L170.525 65.848C170.109 65.752 169.901 65.504 169.901 65.104V63.688H173.549C173.917 63.688 174.165 63.872 174.293 64.24L174.485 65.152C174.773 64.832 174.997 64.608 175.157 64.48C175.381 64.304 175.637 64.136 175.925 63.976C176.181 63.832 176.469 63.712 176.789 63.616C177.045 63.536 177.381 63.496 177.797 63.496C178.597 63.496 179.237 63.704 179.717 64.12C180.229 64.568 180.605 65.128 180.845 65.8C181.037 65.384 181.277 65.032 181.565 64.744C181.821 64.488 182.133 64.256 182.501 64.048C182.773 63.888 183.141 63.752 183.605 63.64C183.989 63.544 184.381 63.496 184.781 63.496C185.469 63.496 186.069 63.6 186.581 63.808C187.141 64.032 187.589 64.336 187.925 64.72C188.277 65.12 188.549 65.608 188.741 66.184C188.933 66.76 189.029 67.424 189.029 68.176V73.624L189.725 73.744C189.805 73.76 189.869 73.776 189.917 73.792C189.981 73.808 190.037 73.816 190.085 73.816L190.229 73.84Z" fill="#2D3748"/>
<rect x="0.000183105" width="75" height="12" fill="#F6AD55"/>
<rect x="155" width="75" height="12" fill="#F6AD55"/>
<rect x="214.338" width="15.5389" height="29.3062" fill="#F6AD55"/>
<rect x="6.10352e-05" y="3.11011" width="15.5389" height="22.3684" fill="#F6AD55"/>
<rect y="88" width="75" height="12" fill="#2C5282"/>
<rect x="155" y="88" width="75" height="12" fill="#2C5282"/>
<rect x="214.338" y="72.1292" width="15.5389" height="27.8708" fill="#2C5282"/>
<rect x="6.10352e-05" y="72.1292" width="15.5389" height="27.8708" fill="#2C5282"/>
<path d="M105.386 1.31592L106.509 4.77083H110.141L107.202 6.90609L108.325 10.361L105.386 8.22575L102.447 10.361L103.57 6.90609L100.631 4.77083H104.263L105.386 1.31592Z" fill="#2C5282"/>
<path d="M117.842 1.31592L118.964 4.77083H122.597L119.658 6.90609L120.781 10.361L117.842 8.22575L114.903 10.361L116.025 6.90609L113.087 4.77083H116.719L117.842 1.31592Z" fill="#2C5282"/>
<path d="M130.297 1.31592L131.42 4.77083H135.053L132.114 6.90609L133.236 10.361L130.297 8.22575L127.359 10.361L128.481 6.90609L125.542 4.77083H129.175L130.297 1.31592Z" fill="#2C5282"/>
<path d="M105.386 88.9951L106.509 92.45H110.141L107.202 94.5853L108.325 98.0402L105.386 95.9049L102.447 98.0402L103.57 94.5853L100.631 92.45H104.263L105.386 88.9951Z" fill="#F6AD55"/>
<path d="M117.842 89.1147L118.964 92.5697H122.597L119.658 94.7049L120.781 98.1598L117.842 96.0246L114.903 98.1598L116.025 94.7049L113.087 92.5697H116.719L117.842 89.1147Z" fill="#F6AD55"/>
<path d="M130.297 89.1147L131.42 92.5697H135.053L132.114 94.7049L133.236 98.1598L130.297 96.0246L127.359 98.1598L128.481 94.7049L125.542 92.5697H129.175L130.297 89.1147Z" fill="#F6AD55"/>
<path fill-rule="evenodd" clip-rule="evenodd" d="M205.952 40.9485C205.952 26.6117 216.34 14.7011 230 12.3335V29.9231C224.397 31.963 220.396 37.3365 220.396 43.6446V45.2153H205.952V40.9485Z" fill="#F6AD55"/>
<path fill-rule="evenodd" clip-rule="evenodd" d="M205.952 54.5457V59.0612C205.952 73.3981 216.34 85.3086 230 87.6763V70.087C224.397 68.0471 220.396 62.6735 220.396 56.3655V54.5457H205.952Z" fill="#2C5282"/>
<path fill-rule="evenodd" clip-rule="evenodd" d="M24.0482 40.9485C24.0482 26.6117 13.66 14.7012 4.19617e-05 12.3335V29.9231C5.60274 31.9629 9.6037 37.3365 9.6037 43.6446V45.2153H24.0482V40.9485Z" fill="#F6AD55"/>
<path fill-rule="evenodd" clip-rule="evenodd" d="M24.0482 54.5457V59.0619C24.0482 73.3987 13.66 85.3093 0 87.6769V70.0873C5.60268 68.0474 9.60364 62.6738 9.60364 56.3658V54.5457H24.0482Z" fill="#2C5282"/>
<defs>
<filter id="filter0_i" x="30.392" y="25.532" width="167.061" height="54.468" filterUnits="userSpaceOnUse" color-interpolation-filters="sRGB">
<feFlood flood-opacity="0" result="BackgroundImageFix"/>
<feBlend mode="normal" in="SourceGraphic" in2="BackgroundImageFix" result="shape"/>
<feColorMatrix in="SourceAlpha" type="matrix" values="0 0 0 0 0 0 0 0 0 0 0 0 0 0 0 0 0 0 127 0" result="hardAlpha"/>
<feOffset dy="4"/>
<feGaussianBlur stdDeviation="2"/>
<feComposite in2="hardAlpha" operator="arithmetic" k2="-1" k3="1"/>
<feColorMatrix type="matrix" values="0 0 0 0 0 0 0 0 0 0 0 0 0 0 0 0 0 0 0.25 0"/>
<feBlend mode="normal" in2="shape" result="effect1_innerShadow"/>
</filter>
</defs>
</svg>
