<svg width="1865" height="836" viewBox="0 0 1865 836" fill="none" xmlns="http://www.w3.org/2000/svg">
<rect width="1864" height="101" fill="#F6AD55"/>
<rect x="1738" width="126" height="245" fill="#F6AD55"/>
<rect y="26" width="126" height="187" fill="#F6AD55"/>
<rect x="1" y="733" width="1864" height="103" fill="#2C5282"/>
<rect x="1738" y="603" width="126" height="233" fill="#2C5282"/>
<rect y="603" width="126" height="233" fill="#2C5282"/>
<g filter="url(#filter0_d)">
<path d="M433.395 373.95C429.238 376.96 425.153 379.468 421.14 381.475C416.84 383.625 412.325 385.345 407.595 386.635C402.578 388.068 397.347 389.072 391.9 389.645C385.737 390.362 379.788 390.72 374.055 390.72C363.018 390.72 352.627 388.713 342.88 384.7C333.133 380.687 324.892 375.24 318.155 368.36C310.988 361.05 305.542 352.665 301.815 343.205C297.945 333.458 296.01 322.78 296.01 311.17C296.01 299.13 297.873 288.452 301.6 279.135C305.47 269.388 310.917 261.003 317.94 253.98C324.677 247.1 333.133 241.653 343.31 237.64C352.77 234.057 363.448 232.122 375.345 231.835H376.85C393.19 231.835 411.537 235.562 431.89 243.015V282.575H419.42C416.84 282.575 415.192 281.285 414.475 278.705C414.045 276.698 413.4 271.108 412.54 261.935C401.933 258.352 389.678 256.56 375.775 256.56C368.322 256.56 361.442 257.85 355.135 260.43C348.828 263.01 343.525 266.665 339.225 271.395C334.782 276.268 331.413 282.002 329.12 288.595C326.683 295.475 325.465 303 325.465 311.17C325.465 320.343 326.755 328.37 329.335 335.25C331.915 342.417 335.427 348.293 339.87 352.88C344.457 357.61 349.832 361.265 355.995 363.845C362.302 366.425 369.11 367.715 376.42 367.715C382.44 367.715 388.102 367.142 393.405 365.995C398.135 364.848 402.722 363.2 407.165 361.05V332.885H387.815C385.952 332.885 384.447 332.312 383.3 331.165C382.297 330.162 381.795 328.943 381.795 327.51V311.17H433.395V373.95ZM575.693 369.65C579.276 370.51 581.068 372.732 581.068 376.315V389H552.043C549.32 389 547.17 388.498 545.593 387.495C544.016 386.492 542.583 385.058 541.293 383.195L508.613 333.315C507.466 331.595 506.105 330.305 504.528 329.445C502.951 328.585 500.801 328.155 498.078 328.155H487.113V367.715L493.563 368.79C494.28 368.933 494.853 369.077 495.283 369.22C495.856 369.363 496.358 369.435 496.788 369.435L498.078 369.65C501.661 370.51 503.453 372.732 503.453 376.315V389H441.963V376.315C441.963 372.732 443.755 370.51 447.338 369.65L448.628 369.435L451.853 368.79L458.303 367.715V254.84L451.853 253.765C451.136 253.622 450.491 253.478 449.918 253.335C449.488 253.192 449.058 253.12 448.628 253.12L447.338 252.905C443.755 252.045 441.963 249.823 441.963 246.24V233.555H504.098C514.705 233.555 523.806 234.63 531.403 236.78C538.713 238.93 544.876 242.012 549.893 246.025C554.91 250.182 558.493 254.912 560.643 260.215C562.936 265.662 564.083 271.682 564.083 278.275C564.083 283.148 563.295 288.093 561.718 293.11C560.428 297.267 558.206 301.495 555.053 305.795C552.473 309.378 548.89 312.675 544.303 315.685C539.86 318.552 534.986 320.845 529.683 322.565C533.41 324.715 536.563 327.725 539.143 331.595L563.653 367.715L570.318 368.79C571.035 368.933 571.68 369.077 572.253 369.22C572.97 369.363 573.543 369.435 573.973 369.435L575.693 369.65ZM517.858 305.365C521.871 304.075 525.24 302.212 527.963 299.775C530.4 297.482 532.335 294.615 533.768 291.175C535.058 287.878 535.703 284.295 535.703 280.425C535.703 272.542 533.123 266.45 527.963 262.15C522.946 257.993 514.991 255.915 504.098 255.915H487.113V307.515H503.668C508.541 307.515 513.271 306.798 517.858 305.365ZM751.256 372.445C753.979 373.448 755.341 375.312 755.341 378.035V389H702.881V378.035C702.881 375.598 704.314 373.735 707.181 372.445L711.481 370.725L702.881 347.29H640.961L632.361 370.725L636.661 372.445C639.527 373.735 640.961 375.598 640.961 378.035V389H588.501V378.035C588.501 375.598 589.934 373.735 592.801 372.445L604.626 367.5L657.086 233.555H686.756L739.431 367.5L751.256 372.445ZM695.571 326.865L677.726 278.49C676.006 273.76 674.071 267.668 671.921 260.215L669.986 266.88C668.839 270.75 667.549 274.692 666.116 278.705L648.486 326.865H695.571ZM863.168 308.59C884.525 313.32 895.203 324.858 895.203 343.205C895.203 349.798 893.913 355.89 891.333 361.48C888.753 367.213 885.098 372.087 880.368 376.1C875.925 379.97 870.048 383.123 862.738 385.56C855.858 387.853 847.832 389 838.658 389H763.623V376.315C763.623 372.732 765.415 370.51 768.998 369.65L770.288 369.435C770.718 369.435 771.148 369.363 771.578 369.22C772.152 369.077 772.797 368.933 773.513 368.79L779.963 367.715V254.84L773.513 253.765C772.797 253.622 772.152 253.478 771.578 253.335C771.148 253.192 770.718 253.12 770.288 253.12L768.998 252.905C765.415 252.045 763.623 249.823 763.623 246.24V233.555H833.498C843.818 233.555 852.49 234.487 859.513 236.35C866.967 238.357 872.915 241.152 877.358 244.735C881.945 248.318 885.313 252.69 887.463 257.85C889.613 263.01 890.688 268.672 890.688 274.835C890.688 278.705 890.187 282.217 889.183 285.37C888.18 288.523 886.46 291.677 884.023 294.83C881.873 297.41 879.007 299.99 875.423 302.57C872.27 304.72 868.185 306.727 863.168 308.59ZM831.993 300.85C841.883 300.85 849.337 299.058 854.353 295.475C859.37 291.892 861.878 286.158 861.878 278.275C861.878 270.248 859.585 264.515 854.998 261.075C850.555 257.635 843.388 255.915 833.498 255.915H808.773V300.85H831.993ZM865.103 351.805C866.107 349.225 866.608 346.143 866.608 342.56C866.608 339.55 866.035 336.54 864.888 333.53C863.742 330.663 862.093 328.37 859.943 326.65C857.793 324.93 854.855 323.497 851.128 322.35C847.688 321.347 843.317 320.845 838.013 320.845H808.773V366.425H838.228C843.675 366.425 848.19 365.78 851.773 364.49C855.357 363.2 858.223 361.48 860.373 359.33C862.667 357.037 864.243 354.528 865.103 351.805ZM1100.31 246.24C1100.31 249.823 1098.52 252.045 1094.93 252.905L1093.64 253.12C1093.21 253.12 1092.71 253.192 1092.14 253.335C1091.71 253.478 1091.13 253.622 1090.42 253.765L1084.18 254.84L1040.32 328.585V367.715L1046.56 368.79C1047.27 368.933 1047.85 369.077 1048.28 369.22C1048.85 369.363 1049.35 369.435 1049.78 369.435L1051.07 369.65C1054.66 370.51 1056.45 372.732 1056.45 376.315V389H994.958V376.315C994.958 372.732 996.75 370.51 1000.33 369.65C1000.91 369.65 1001.41 369.578 1001.84 369.435L1005.06 368.79L1011.3 367.715V328.585L967.438 254.84L960.988 253.765C960.272 253.622 959.627 253.478 959.053 253.335C958.623 253.192 958.193 253.12 957.763 253.12L956.473 252.905C952.89 252.045 951.098 249.823 951.098 246.24V233.555H1009.15V246.24C1009.15 249.823 1007.36 252.045 1003.77 252.905L1002.91 253.12L1000.76 253.765L997.753 254.41L1018.39 292.035C1019.54 294.042 1020.97 296.908 1022.69 300.635C1023.41 302.212 1023.98 303.717 1024.41 305.15C1024.99 306.583 1025.49 307.802 1025.92 308.805C1026.63 306.512 1027.71 303.788 1029.14 300.635C1030.86 296.908 1032.3 294.042 1033.44 292.035L1053.87 254.41L1050.64 253.765C1050.21 253.622 1049.85 253.478 1049.57 253.335C1049.28 253.192 1048.99 253.12 1048.71 253.12C1048.42 252.977 1048.06 252.905 1047.63 252.905C1044.05 252.045 1042.26 249.823 1042.26 246.24V233.555H1100.31V246.24ZM1264.26 311.17C1264.26 326.507 1260.9 340.195 1254.16 352.235C1247.57 364.275 1238.25 373.735 1226.21 380.615C1214.31 387.352 1200.77 390.72 1185.57 390.72C1170.38 390.72 1156.76 387.352 1144.72 380.615C1132.83 373.878 1123.51 364.49 1116.77 352.45C1110.04 340.41 1106.67 326.65 1106.67 311.17C1106.67 295.69 1110.04 281.93 1116.77 269.89C1123.51 257.85 1132.83 248.533 1144.72 241.94C1156.76 235.203 1170.38 231.835 1185.57 231.835C1200.91 231.835 1214.53 235.275 1226.42 242.155C1238.46 249.035 1247.78 258.495 1254.37 270.535C1260.97 282.575 1264.26 296.12 1264.26 311.17ZM1234.59 311.17C1234.59 294.687 1230.29 281.5 1221.69 271.61C1213.24 261.577 1201.2 256.56 1185.57 256.56C1169.66 256.56 1157.41 261.577 1148.81 271.61C1140.35 281.643 1136.12 294.83 1136.12 311.17C1136.12 327.797 1140.42 341.127 1149.02 351.16C1157.62 361.05 1169.81 365.995 1185.57 365.995C1201.34 365.995 1213.45 360.978 1221.91 350.945C1230.37 340.912 1234.59 327.653 1234.59 311.17ZM1432.12 246.24C1432.12 249.823 1430.33 252.045 1426.74 252.905L1425.45 253.12C1425.02 253.12 1424.52 253.192 1423.95 253.335C1423.52 253.478 1422.95 253.622 1422.23 253.765L1415.78 254.84V326.65C1415.78 335.967 1414.27 344.495 1411.26 352.235C1408.11 360.405 1403.88 367.213 1398.58 372.66C1392.99 378.25 1386.18 382.693 1378.15 385.99C1370.41 389.143 1361.46 390.72 1351.28 390.72C1341.1 390.72 1332.14 389.143 1324.4 385.99C1316.66 382.837 1309.93 378.393 1304.19 372.66C1298.6 366.927 1294.3 360.118 1291.29 352.235C1288.43 344.925 1286.99 336.397 1286.99 326.65V254.84L1280.54 253.765C1279.83 253.622 1279.18 253.478 1278.61 253.335C1278.18 253.192 1277.75 253.12 1277.32 253.12L1276.03 252.905C1272.45 252.045 1270.65 249.823 1270.65 246.24V233.555H1333V246.24C1333 249.823 1331.21 252.045 1327.63 252.905L1326.12 253.12C1325.69 253.12 1325.19 253.192 1324.62 253.335C1324.05 253.478 1323.33 253.622 1322.47 253.765L1315.8 254.84V326.435C1315.8 332.885 1316.59 338.26 1318.17 342.56C1319.6 347.147 1321.97 351.303 1325.26 355.03C1327.99 358.183 1331.64 360.763 1336.23 362.77C1340.39 364.633 1345.4 365.565 1351.28 365.565C1357.16 365.565 1362.17 364.633 1366.33 362.77C1371.2 360.62 1374.93 358.04 1377.51 355.03C1380.23 351.877 1382.53 347.792 1384.39 342.775C1386.11 337.328 1386.97 331.953 1386.97 326.65V254.84L1380.3 253.765C1379.44 253.622 1378.73 253.478 1378.15 253.335C1377.58 253.192 1377.08 253.12 1376.65 253.12L1375.14 252.905C1371.56 252.045 1369.77 249.823 1369.77 246.24V233.555H1432.12V246.24ZM1573.43 369.65C1577.01 370.51 1578.8 372.732 1578.8 376.315V389H1549.78C1547.05 389 1544.9 388.498 1543.33 387.495C1541.75 386.492 1540.32 385.058 1539.03 383.195L1506.35 333.315C1505.2 331.595 1503.84 330.305 1502.26 329.445C1500.69 328.585 1498.54 328.155 1495.81 328.155H1484.85V367.715L1491.3 368.79C1492.01 368.933 1492.59 369.077 1493.02 369.22C1493.59 369.363 1494.09 369.435 1494.52 369.435L1495.81 369.65C1499.4 370.51 1501.19 372.732 1501.19 376.315V389H1439.7V376.315C1439.7 372.732 1441.49 370.51 1445.07 369.65L1446.36 369.435L1449.59 368.79L1456.04 367.715V254.84L1449.59 253.765C1448.87 253.622 1448.23 253.478 1447.65 253.335C1447.22 253.192 1446.79 253.12 1446.36 253.12L1445.07 252.905C1441.49 252.045 1439.7 249.823 1439.7 246.24V233.555H1501.83C1512.44 233.555 1521.54 234.63 1529.14 236.78C1536.45 238.93 1542.61 242.012 1547.63 246.025C1552.64 250.182 1556.23 254.912 1558.38 260.215C1560.67 265.662 1561.82 271.682 1561.82 278.275C1561.82 283.148 1561.03 288.093 1559.45 293.11C1558.16 297.267 1555.94 301.495 1552.79 305.795C1550.21 309.378 1546.62 312.675 1542.04 315.685C1537.59 318.552 1532.72 320.845 1527.42 322.565C1531.14 324.715 1534.3 327.725 1536.88 331.595L1561.39 367.715L1568.05 368.79C1568.77 368.933 1569.41 369.077 1569.99 369.22C1570.7 369.363 1571.28 369.435 1571.71 369.435L1573.43 369.65ZM1515.59 305.365C1519.61 304.075 1522.97 302.212 1525.7 299.775C1528.13 297.482 1530.07 294.615 1531.5 291.175C1532.79 287.878 1533.44 284.295 1533.44 280.425C1533.44 272.542 1530.86 266.45 1525.7 262.15C1520.68 257.993 1512.73 255.915 1501.83 255.915H1484.85V307.515H1501.4C1506.28 307.515 1511.01 306.798 1515.59 305.365ZM411.68 494.405H399.21C396.63 494.405 394.982 493.043 394.265 490.32C393.548 484.73 393.047 480.143 392.76 476.56H342.665V519.56H395.34V541.92H342.665V585.78H392.76C393.047 582.197 393.548 577.61 394.265 572.02C394.982 569.297 396.63 567.935 399.21 567.935H411.68V609H297.3V596.315C297.3 592.732 299.092 590.51 302.675 589.65L303.965 589.435C304.395 589.435 304.825 589.363 305.255 589.22C305.828 589.077 306.473 588.933 307.19 588.79L313.64 587.715V474.84L307.19 473.765C306.473 473.622 305.828 473.478 305.255 473.335C304.825 473.192 304.395 473.12 303.965 473.12L302.675 472.905C299.092 472.045 297.3 469.823 297.3 466.24V453.555H411.68V494.405ZM586.307 466.24C586.307 469.823 584.515 472.045 580.932 472.905L579.642 473.12C579.355 473.12 578.925 473.192 578.352 473.335C577.922 473.478 577.349 473.622 576.632 473.765L570.397 474.84L516.217 609H490.202L435.807 474.84L429.787 473.765C429.07 473.622 428.425 473.478 427.852 473.335C427.422 473.192 426.992 473.12 426.562 473.12L425.272 472.905C421.689 472.045 419.897 469.823 419.897 466.24V453.555H477.947V466.24C477.947 469.823 476.155 472.045 472.572 472.905C472.142 472.905 471.784 472.977 471.497 473.12L469.347 473.765L465.907 474.625L496.867 555.035C497.87 557.328 499.017 560.697 500.307 565.14L503.532 576.75C505.252 568.867 507.33 561.628 509.767 555.035L540.512 474.625L537.072 473.765L534.707 473.12C534.42 472.977 534.062 472.905 533.632 472.905C530.049 472.045 528.257 469.823 528.257 466.24V453.555H586.307V466.24ZM708.565 494.405H696.095C693.515 494.405 691.866 493.043 691.15 490.32C690.433 484.73 689.931 480.143 689.645 476.56H639.55V519.56H692.225V541.92H639.55V585.78H689.645C689.931 582.197 690.433 577.61 691.15 572.02C691.866 569.297 693.515 567.935 696.095 567.935H708.565V609H594.185V596.315C594.185 592.732 595.976 590.51 599.56 589.65L600.85 589.435C601.28 589.435 601.71 589.363 602.14 589.22C602.713 589.077 603.358 588.933 604.075 588.79L610.525 587.715V474.84L604.075 473.765C603.358 473.622 602.713 473.478 602.14 473.335C601.71 473.192 601.28 473.12 600.85 473.12L599.56 472.905C595.976 472.045 594.185 469.823 594.185 466.24V453.555H708.565V494.405ZM881.257 466.24C881.257 469.823 879.465 472.045 875.882 472.905L874.592 473.12C874.162 473.12 873.66 473.192 873.087 473.335C872.657 473.478 872.083 473.622 871.367 473.765L865.132 474.84V609H850.082C848.075 609 846.212 608.642 844.492 607.925C843.058 607.352 841.553 606.062 839.977 604.055L758.707 500.64C758.993 503.793 759.137 506.015 759.137 507.305L759.352 513.54V587.715L773.327 589.65C776.91 590.51 778.702 592.732 778.702 596.315V609H717.642V596.315C717.642 592.732 719.433 590.51 723.017 589.65L724.307 589.435L727.532 588.79L733.982 587.715V474.84L727.532 473.765C726.815 473.622 726.17 473.478 725.597 473.335C725.167 473.192 724.737 473.12 724.307 473.12L723.017 472.905C719.433 472.045 717.642 469.823 717.642 466.24V453.555H749.032L752.257 453.77C753.26 453.77 754.048 453.985 754.622 454.415C755.195 454.558 755.84 454.988 756.557 455.705L758.707 458.285L840.407 562.13L839.762 554.82C839.618 553.243 839.547 550.95 839.547 547.94V474.84L825.572 472.905C821.988 472.045 820.197 469.823 820.197 466.24V453.555H881.257V466.24ZM1017.11 490.32H1004.86C1002.14 490.32 1000.42 488.958 999.7 486.235C999.27 483.798 998.912 480.86 998.625 477.42H967.02V587.715L973.255 588.79C973.972 588.933 974.545 589.077 974.975 589.22C975.548 589.363 976.05 589.435 976.48 589.435L977.77 589.65C981.497 590.51 983.36 592.732 983.36 596.315V609H921.87V596.315C921.87 592.732 923.662 590.51 927.245 589.65L928.535 589.435C928.965 589.435 929.395 589.363 929.825 589.22C930.398 589.077 931.043 588.933 931.76 588.79L937.995 587.715V477.205H906.39C906.103 480.932 905.745 483.942 905.315 486.235C904.598 488.958 902.95 490.32 900.37 490.32H887.9V453.555H1017.11V490.32Z" fill="#1A202C"/>
</g>
<rect x="1080" y="456" width="501" height="176" fill="#F6AD55"/>
<path d="M1130.9 593.8C1130.9 592.1 1131.2 590.6 1131.8 589.3C1132.4 587.9 1133.2 586.7 1134.2 585.7C1135.2 584.7 1136.4 583.9 1137.8 583.3C1139.2 582.7 1140.7 582.4 1142.3 582.4C1143.9 582.4 1145.4 582.7 1146.8 583.3C1148.2 583.9 1149.4 584.7 1150.4 585.7C1151.4 586.7 1152.2 587.9 1152.8 589.3C1153.4 590.6 1153.7 592.1 1153.7 593.8C1153.7 595.4 1153.4 596.9 1152.8 598.3C1152.2 599.6 1151.4 600.75 1150.4 601.75C1149.4 602.75 1148.2 603.55 1146.8 604.15C1145.5 604.75 1144.05 605.05 1142.45 605.05C1140.85 605.05 1139.35 604.75 1137.95 604.15C1136.35 603.45 1135.1 602.65 1134.2 601.75C1133.2 600.75 1132.4 599.6 1131.8 598.3C1131.2 596.9 1130.9 595.4 1130.9 593.8ZM1254.52 592.45C1252.12 595.15 1249.92 597.2 1247.92 598.6C1245.92 599.9 1243.42 601.2 1240.42 602.5C1238.22 603.3 1235.57 603.95 1232.47 604.45C1230.07 604.85 1227.32 605.05 1224.22 605.05C1219.32 605.05 1214.87 604.2 1210.87 602.5C1206.67 600.7 1203.02 598.1 1199.92 594.7C1196.62 591.1 1194.12 586.95 1192.42 582.25C1190.62 577.25 1189.72 571.6 1189.72 565.3C1189.72 559.6 1190.52 554.4 1192.12 549.7C1193.82 544.9 1196.22 540.7 1199.32 537.1C1202.42 533.6 1206.32 530.85 1211.02 528.85C1215.82 526.85 1221.17 525.85 1227.07 525.85C1233.47 525.85 1241.57 527.7 1251.37 531.4L1251.22 555.1H1242.67C1240.87 555.1 1239.72 554.15 1239.22 552.25L1238.02 541.45C1234.32 540.45 1231.02 539.95 1228.12 539.95C1224.82 539.95 1221.97 540.55 1219.57 541.75C1217.07 542.95 1215.07 544.6 1213.57 546.7C1211.77 549.2 1210.52 551.9 1209.82 554.8C1209.02 558.2 1208.62 561.7 1208.62 565.3C1208.62 569.4 1209.07 573.05 1209.97 576.25C1210.87 579.55 1212.12 582.25 1213.72 584.35C1215.42 586.45 1217.42 588.1 1219.72 589.3C1222.22 590.4 1224.87 590.95 1227.67 590.95C1230.77 590.95 1233.17 590.6 1234.87 589.9C1237.07 589 1238.62 588.2 1239.52 587.5C1240.02 587.1 1240.52 586.75 1241.02 586.45C1241.62 586.05 1242.22 585.6 1242.82 585.1C1243.62 584.4 1244.62 584.05 1245.82 584.05C1247.42 584.05 1248.57 584.6 1249.27 585.7L1254.52 592.45ZM1326.82 525.85C1332.32 525.85 1337.52 526.8 1342.42 528.7C1347.22 530.6 1351.22 533.2 1354.42 536.5C1357.62 539.8 1360.12 543.95 1361.92 548.95C1363.72 553.85 1364.62 559.3 1364.62 565.3C1364.62 571.3 1363.72 576.8 1361.92 581.8C1360.02 586.9 1357.52 591.1 1354.42 594.4C1351.12 597.9 1347.12 600.55 1342.42 602.35C1337.82 604.15 1332.62 605.05 1326.82 605.05C1321.02 605.05 1315.77 604.15 1311.07 602.35C1306.37 600.55 1302.37 597.9 1299.07 594.4C1295.57 590.8 1292.97 586.6 1291.27 581.8C1289.47 576.8 1288.57 571.3 1288.57 565.3C1288.57 559.3 1289.47 553.85 1291.27 548.95C1292.97 544.35 1295.57 540.2 1299.07 536.5C1302.27 533.2 1306.27 530.6 1311.07 528.7C1315.97 526.8 1321.22 525.85 1326.82 525.85ZM1326.82 590.8C1333.22 590.8 1337.92 588.65 1340.92 584.35C1344.02 579.85 1345.57 573.55 1345.57 565.45C1345.57 557.35 1344.02 551.05 1340.92 546.55C1337.92 542.15 1333.22 539.95 1326.82 539.95C1320.42 539.95 1315.62 542.15 1312.42 546.55C1309.22 550.95 1307.62 557.3 1307.62 565.6C1307.62 573.7 1309.22 579.95 1312.42 584.35C1315.52 588.65 1320.32 590.8 1326.82 590.8ZM1526.93 590.5C1529.43 591.1 1530.68 592.65 1530.68 595.15V604H1500.83V555.1C1500.83 550.1 1499.78 546.4 1497.68 544C1495.58 541.5 1492.43 540.25 1488.23 540.25C1486.53 540.25 1484.73 540.6 1482.83 541.3C1481.23 541.9 1479.83 542.8 1478.63 544C1477.63 545 1476.68 546.55 1475.78 548.65C1475.08 550.35 1474.73 552.5 1474.73 555.1V589.15L1479.08 589.9L1481.33 590.35L1482.23 590.5C1484.73 591.1 1485.98 592.65 1485.98 595.15V604H1456.13V555.1C1456.13 550 1455.08 546.25 1452.98 543.85C1450.88 541.45 1447.83 540.25 1443.83 540.25C1441.13 540.25 1438.63 540.9 1436.33 542.2C1434.23 543.4 1432.08 545.25 1429.88 547.75V589.15L1434.23 589.9L1436.48 590.35L1437.38 590.5C1439.88 591.1 1441.13 592.65 1441.13 595.15V604H1400.03V595.15C1400.03 592.65 1401.28 591.1 1403.78 590.5L1404.68 590.35C1404.98 590.35 1405.28 590.3 1405.58 590.2C1405.98 590.1 1406.43 590 1406.93 589.9L1411.28 589.15V541.9L1406.93 541.15C1406.43 541.05 1405.98 540.95 1405.58 540.85C1405.28 540.75 1404.98 540.7 1404.68 540.7L1403.78 540.55C1401.18 539.95 1399.88 538.4 1399.88 535.9V527.05H1422.68C1424.98 527.05 1426.53 528.2 1427.33 530.5L1428.53 536.2C1430.33 534.2 1431.73 532.8 1432.73 532C1434.13 530.9 1435.73 529.85 1437.53 528.85C1439.13 527.95 1440.93 527.2 1442.93 526.6C1444.53 526.1 1446.63 525.85 1449.23 525.85C1454.23 525.85 1458.23 527.15 1461.23 529.75C1464.43 532.55 1466.78 536.05 1468.28 540.25C1469.48 537.65 1470.98 535.45 1472.78 533.65C1474.38 532.05 1476.33 530.6 1478.63 529.3C1480.33 528.3 1482.63 527.45 1485.53 526.75C1487.93 526.15 1490.38 525.85 1492.88 525.85C1497.18 525.85 1500.93 526.5 1504.13 527.8C1507.63 529.2 1510.43 531.1 1512.53 533.5C1514.73 536 1516.43 539.05 1517.63 542.65C1518.83 546.25 1519.43 550.4 1519.43 555.1V589.15L1523.78 589.9C1524.28 590 1524.68 590.1 1524.98 590.2C1525.38 590.3 1525.73 590.35 1526.03 590.35L1526.93 590.5Z" fill="#2D3748"/>
<path d="M854 11L862.981 38.6393H892.042L868.531 55.7214L877.511 83.3607L854 66.2786L830.489 83.3607L839.469 55.7214L815.958 38.6393H845.019L854 11Z" fill="#2C5282"/>
<path d="M955 11L963.981 38.6393H993.042L969.531 55.7214L978.511 83.3607L955 66.2786L931.489 83.3607L940.469 55.7214L916.958 38.6393H946.019L955 11Z" fill="#2C5282"/>
<path d="M1056 11L1064.98 38.6393H1094.04L1070.53 55.7214L1079.51 83.3607L1056 66.2786L1032.49 83.3607L1041.47 55.7214L1017.96 38.6393H1047.02L1056 11Z" fill="#2C5282"/>
<path d="M854 744L862.981 771.639H892.042L868.531 788.721L877.511 816.361L854 799.279L830.489 816.361L839.469 788.721L815.958 771.639H845.019L854 744Z" fill="white"/>
<path d="M955 745L963.981 772.639H993.042L969.531 789.721L978.511 817.361L955 800.279L931.489 817.361L940.469 789.721L916.958 772.639H946.019L955 745Z" fill="white"/>
<path d="M1056 745L1064.98 772.639H1094.04L1070.53 789.721L1079.51 817.361L1056 800.279L1032.49 817.361L1041.47 789.721L1017.96 772.639H1047.02L1056 745Z" fill="white"/>
<path fill-rule="evenodd" clip-rule="evenodd" d="M1670 335.031C1670 218.778 1754.24 122.199 1865 103V249.934C1819.57 266.475 1787.13 310.047 1787.13 361.197V378H1670V335.031Z" fill="#F6AD55"/>
<path fill-rule="evenodd" clip-rule="evenodd" d="M1670 456V501.048C1670 617.301 1754.24 713.88 1865 733.078V586.144C1819.57 569.604 1787.13 526.031 1787.13 474.881V456H1670Z" fill="#2C5282"/>
<path fill-rule="evenodd" clip-rule="evenodd" d="M195 335.031C195 218.778 110.765 122.199 0 103V249.934C45.4305 266.475 77.873 310.047 77.873 361.197V378H195V335.031Z" fill="#F6AD55"/>
<path fill-rule="evenodd" clip-rule="evenodd" d="M195 456V501.048C195 617.301 110.765 713.88 0 733.078V586.144C45.4305 569.604 77.873 526.031 77.873 474.881V456H195Z" fill="#2C5282"/>
<defs>
<filter id="filter0_d" x="292.01" y="231.835" width="1290.79" height="385.165" filterUnits="userSpaceOnUse" color-interpolation-filters="sRGB">
<feFlood flood-opacity="0" result="BackgroundImageFix"/>
<feColorMatrix in="SourceAlpha" type="matrix" values="0 0 0 0 0 0 0 0 0 0 0 0 0 0 0 0 0 0 127 0"/>
<feOffset dy="4"/>
<feGaussianBlur stdDeviation="2"/>
<feColorMatrix type="matrix" values="0 0 0 0 0 0 0 0 0 0 0 0 0 0 0 0 0 0 0.25 0"/>
<feBlend mode="normal" in2="BackgroundImageFix" result="effect1_dropShadow"/>
<feBlend mode="normal" in="SourceGraphic" in2="effect1_dropShadow" result="shape"/>
</filter>
</defs>
</svg>
