<svg width="407" height="321" viewBox="0 0 407 321" fill="none" xmlns="http://www.w3.org/2000/svg">
<g clip-path="url(#clip0)">
<path d="M180.2 274.62C179.2 277.47 178.32 280.74 179.77 283.39C180.74 284.867 182.045 286.094 183.58 286.97L197.38 296.35C200.03 298.15 202.84 300 206.02 300.24C209.2 300.48 212.81 298.45 213.08 295.24C213.4 291.57 209.55 289.06 207.75 285.84C205.39 281.62 206.69 276.39 207.92 271.71C211.021 259.931 213.287 247.948 214.7 235.85C211.87 234.69 203.63 229.5 200.7 230.36C197.4 231.36 194.42 240.59 192.95 243.6C187.981 253.63 183.721 263.995 180.2 274.62V274.62Z" fill="#F1AF8C"/>
<path d="M206.67 195.47C203.09 205.64 199.29 215.84 193.55 224.98C193.342 225.245 193.232 225.573 193.24 225.91C193.331 226.227 193.529 226.502 193.8 226.69C199.57 231.74 205.8 237.01 213.39 238.1C213.885 238.214 214.403 238.169 214.87 237.97C215.308 237.659 215.631 237.213 215.79 236.7C220.63 225.49 222.34 213.21 222.18 201.07C222.075 195.006 221.594 188.954 220.74 182.95C220.54 181.49 220.43 175.01 219.16 174.25C217.23 173.11 215.11 177.09 214.27 178.34C210.79 183.55 208.73 189.55 206.67 195.47Z" fill="white"/>
<path d="M222.36 176.09C222.36 176.09 217.85 177.78 214.18 190.48C210.51 203.18 201.75 233.96 201.75 233.96C201.75 233.96 215.3 240.73 218.69 238.19C222.08 235.65 222.36 176.09 222.36 176.09Z" fill="url(#paint0_linear)"/>
<path d="M260.8 163.01C268.18 162.78 275.65 163.14 282.75 165.14C289.85 167.14 296.6 170.92 301.26 176.65C306.42 182.99 308.68 191.28 309.2 199.43C309.72 207.58 308.64 215.75 307.82 223.89C305.899 242.943 305.391 262.112 306.3 281.24C306.52 285.82 309.14 309.73 305.92 313C303.92 315.06 307.92 317.12 305.07 317.8C281.77 323.4 239.91 320.65 217.85 311.31C212.24 308.93 206.61 305.62 203.85 300.2C200.85 294.33 208.95 271.06 209.92 264.53C212.86 244.603 214.98 224.57 216.28 204.43C216.85 195.52 216.19 185.92 218.02 177.17C219.35 170.82 223.44 169.09 229.34 167.53C239.625 164.854 250.178 163.338 260.8 163.01Z" fill="white"/>
<path d="M279.97 267.26C279.2 271.31 278.19 275.54 275.42 278.6C273.229 280.79 270.548 282.428 267.6 283.38C253.7 288.62 237.85 287.8 224.53 294.38C223.59 294.792 222.725 295.356 221.97 296.05C219.4 298.59 220.12 303.05 222.16 306.05C226.69 312.68 235.5 314.54 243.45 315.77C262.51 318.77 281.97 321.22 301.02 318.15C302.057 318.075 303.048 317.696 303.87 317.06C304.527 316.297 304.948 315.359 305.08 314.36C309.4 295.18 306 275.21 305.92 255.55C305.92 244.21 306.92 232.86 306.15 221.55C305.762 214.512 304.299 207.575 301.81 200.98C300.04 196.5 294.86 186.61 291.75 195.79C286.81 210.38 285.39 226.11 283.61 241.32C282.64 249.99 281.6 258.67 279.97 267.26Z" fill="url(#paint1_linear)"/>
<path d="M285.93 302.42H124.31C119.776 302.42 116.1 306.096 116.1 310.63C116.1 315.164 119.776 318.84 124.31 318.84H285.93C290.464 318.84 294.14 315.164 294.14 310.63C294.14 306.096 290.464 302.42 285.93 302.42Z" fill="#F6AD55"/>
<path d="M285.93 302.42H124.31C119.776 302.42 116.1 306.096 116.1 310.63C116.1 315.164 119.776 318.84 124.31 318.84H285.93C290.464 318.84 294.14 315.164 294.14 310.63C294.14 306.096 290.464 302.42 285.93 302.42Z" fill="url(#paint2_linear)"/>
<path d="M242.97 178.55C239.66 178.02 237.8 174.69 239.28 166.67C239.44 165.78 239.65 164.92 239.89 164.06C239.89 163.9 239.98 163.74 240.02 163.58C240.38 162.34 240.79 161.1 241.19 159.87C242.303 156.918 242.892 153.795 242.93 150.64C242.84 148.34 242.66 145.95 243.51 143.83C244.327 142.031 245.607 140.481 247.22 139.34C250.79 136.59 261.22 131.42 263.22 138.25C264.11 141.17 263.46 144.57 263.42 147.56C263.22 151.845 264.007 156.118 265.72 160.05C267.9 164.43 251.1 179.85 242.97 178.55Z" fill="#F1AF8C"/>
<path d="M240.62 162.26C240.62 162.26 259.06 155.26 262.62 144.19L242.97 150.62C242.97 150.62 242.5 160.75 240.62 162.26Z" fill="url(#paint3_linear)"/>
<path d="M290.61 186.2C288.728 207.121 292.196 228.178 300.69 247.39C300.941 248.099 301.364 248.734 301.92 249.24C302.817 249.797 303.867 250.056 304.92 249.98C313.146 250.157 321.195 247.573 327.78 242.64C329.78 241.13 331.66 239.2 331.83 236.85C331.835 235.59 331.586 234.342 331.1 233.18C325.995 218.344 320.035 203.817 313.25 189.67C310.73 184.43 307.35 178.29 301.25 175.98C293.91 173.21 291.12 180.72 290.61 186.2Z" fill="white"/>
<path d="M254.88 198.16C260.35 192.39 264.36 185.42 268.32 178.53C270.73 174.33 273.2 169.94 273.54 165.1C273.626 164.55 273.538 163.988 273.29 163.49C273.049 163.143 272.735 162.853 272.37 162.64L264.86 157.55C264.73 162.16 261.42 166.12 257.64 168.77C253.64 171.61 242.19 174.72 244.64 180.61C245.25 182.1 254.24 198.83 254.88 198.16Z" fill="#F6AD55"/>
<path d="M254.88 198.16C260.35 192.39 264.36 185.42 268.32 178.53C270.73 174.33 273.2 169.94 273.54 165.1C273.626 164.55 273.538 163.988 273.29 163.49C273.049 163.143 272.735 162.853 272.37 162.64L264.86 157.55C264.73 162.16 261.42 166.12 257.64 168.77C253.64 171.61 242.19 174.72 244.64 180.61C245.25 182.1 254.24 198.83 254.88 198.16Z" fill="url(#paint4_linear)"/>
<path d="M297.61 306.18L341.41 297.81C344 297.31 346.7 296.81 348.75 295.11C351.56 292.85 352.55 288.89 352.14 285.3C351.73 281.71 350.14 278.38 348.56 275.12C342.34 262.24 329.72 239.12 329.64 240.47C321.98 242.09 315.64 242.17 309.06 246.38C307.927 246.991 306.97 247.883 306.28 248.97C303.65 253.97 310.84 261.27 313.28 265.07C314.215 266.285 314.84 267.709 315.1 269.22C315.152 270.288 314.954 271.353 314.52 272.33C312.15 278.15 303.71 281.54 298.52 284.53C291.734 288.633 284.127 291.187 276.24 292.01C270.12 292.53 263.87 291.74 257.89 293.11C254.222 293.984 250.785 295.636 247.812 297.955C244.84 300.274 242.4 303.205 240.66 306.55C244.22 308.81 248.85 307.5 252.95 306.47C260.547 304.586 268.4 303.954 276.2 304.6C281.26 305.03 295.21 310.89 297.61 306.18Z" fill="#F1AF8C"/>
<path d="M229.89 318.85H105.89L73.18 235.85C72.7367 234.743 72.5717 233.544 72.6996 232.358C72.8275 231.172 73.2444 230.036 73.9137 229.049C74.5829 228.062 75.4842 227.254 76.5383 226.696C77.5925 226.139 78.7674 225.848 79.96 225.85H177.3C182.014 225.848 186.62 227.265 190.517 229.917C194.414 232.569 197.423 236.334 199.15 240.72L229.89 318.85Z" fill="#F6AD55"/>
<path d="M229.89 318.85H105.89L73.18 235.85C72.7367 234.743 72.5717 233.544 72.6996 232.358C72.8275 231.172 73.2444 230.036 73.9137 229.049C74.5829 228.062 75.4842 227.254 76.5383 226.696C77.5925 226.139 78.7674 225.848 79.96 225.85H177.3C182.014 225.848 186.62 227.265 190.517 229.917C194.414 232.569 197.423 236.334 199.15 240.72L229.89 318.85Z" fill="url(#paint5_linear)"/>
<path d="M223.59 318.94H105.77L74.69 240.13C74.2763 239.08 74.1254 237.944 74.2504 236.823C74.3754 235.701 74.7725 234.626 75.4072 233.693C76.042 232.76 76.8951 231.995 77.8925 231.467C78.8899 230.938 80.0012 230.661 81.13 230.66H173.59C178.068 230.663 182.442 232.012 186.143 234.532C189.845 237.051 192.704 240.625 194.35 244.79L223.59 318.94Z" fill="url(#paint6_linear)"/>
<path d="M238.97 45.04C241.97 43.28 244.97 41.49 248.36 40.83C251.75 40.17 256.36 40.57 258.65 43.13C255.681 43.3388 252.787 44.1643 250.155 45.5538C247.522 46.9433 245.208 48.8662 243.36 51.2C243.188 51.5033 242.916 51.7368 242.59 51.86C242.311 51.8893 242.03 51.8372 241.78 51.71C240.4 51.19 230.06 53.55 229.46 52.3C229.49 52.3 237.7 45.81 238.97 45.04Z" fill="#F6AD55"/>
<path d="M238.97 45.04C241.97 43.28 244.97 41.49 248.36 40.83C251.75 40.17 256.36 40.57 258.65 43.13C255.681 43.3388 252.787 44.1643 250.155 45.5538C247.522 46.9433 245.208 48.8662 243.36 51.2C243.188 51.5033 242.916 51.7368 242.59 51.86C242.311 51.8893 242.03 51.8372 241.78 51.71C240.4 51.19 230.06 53.55 229.46 52.3C229.49 52.3 237.7 45.81 238.97 45.04Z" fill="url(#paint7_linear)"/>
<path d="M216.62 121.3C223.325 121.3 228.76 114.602 228.76 106.34C228.76 98.0778 223.325 91.38 216.62 91.38C209.915 91.38 204.48 98.0778 204.48 106.34C204.48 114.602 209.915 121.3 216.62 121.3Z" fill="#F6AD55"/>
<path d="M219.11 121.86C225.312 121.86 230.34 115.664 230.34 108.02C230.34 100.376 225.312 94.18 219.11 94.18C212.908 94.18 207.88 100.376 207.88 108.02C207.88 115.664 212.908 121.86 219.11 121.86Z" fill="#F6AD55"/>
<path d="M219.11 121.86C225.312 121.86 230.34 115.664 230.34 108.02C230.34 100.376 225.312 94.18 219.11 94.18C212.908 94.18 207.88 100.376 207.88 108.02C207.88 115.664 212.908 121.86 219.11 121.86Z" fill="url(#paint8_linear)"/>
<path d="M215.16 80.14L217.97 131.55C217.97 131.55 219.22 150.95 238.45 151.14C261.55 151.37 268.58 137.94 272.09 127.72C275.6 117.5 278.77 87.48 272.09 79.18C265.41 70.88 227.82 50.45 215.16 80.14Z" fill="#F1AF8C"/>
<path d="M229.77 49.27C220.71 49.11 210.36 53.34 206.23 61.89C205.239 63.8573 204.699 66.021 204.651 68.2233C204.603 70.4257 205.046 72.611 205.95 74.62C206.282 75.2109 206.544 75.8384 206.73 76.49C206.82 77.2105 206.82 77.9395 206.73 78.66C206.651 80.3971 207.001 82.1268 207.75 83.6964C208.498 85.2661 209.621 86.6273 211.02 87.66C212.61 88.81 214.54 89.53 215.81 91.02L215.32 81.45C215.207 80.9329 215.303 80.392 215.588 79.9459C215.873 79.4998 216.323 79.1848 216.84 79.07L222.93 76.23C222.93 76.23 224.81 77.6 225.04 77.71C226.051 78.1404 227.142 78.3485 228.24 78.32C230.627 78.3763 233.014 78.2425 235.38 77.92C240.49 77.19 245.38 75.32 250.15 73.46C249.996 74.9385 249.356 76.3241 248.33 77.4L263.86 80.4C266.135 83.5276 267.968 86.953 269.31 90.58C270.384 93.4149 271.089 96.3757 271.41 99.39C271.826 103.488 271.442 107.628 270.28 111.58C271.336 110.775 272.261 109.81 273.02 108.72C274.424 109.695 275.978 110.435 277.62 110.91C277.962 111.037 278.332 111.068 278.69 111C279.45 110.79 279.61 109.89 279.69 109.17C280.31 102.72 285.11 97.27 287.31 91.11C289.98 83.65 288.63 75.26 284.55 68.35C283.341 66.1605 281.698 64.2412 279.72 62.71C272.57 57.47 262.41 59.87 254.25 57.13C250.37 55.83 247.25 53.36 243.54 51.73C239.42 49.98 234.26 49.35 229.77 49.27Z" fill="#3F3D56"/>
<path d="M229.77 49.27C220.71 49.11 210.36 53.34 206.23 61.89C205.239 63.8573 204.699 66.021 204.651 68.2233C204.603 70.4257 205.046 72.611 205.95 74.62C206.282 75.2109 206.544 75.8384 206.73 76.49C206.82 77.2105 206.82 77.9395 206.73 78.66C206.651 80.3971 207.001 82.1268 207.75 83.6964C208.498 85.2661 209.621 86.6273 211.02 87.66C212.61 88.81 214.54 89.53 215.81 91.02L215.32 81.45C215.207 80.9329 215.303 80.392 215.588 79.9459C215.873 79.4998 216.323 79.1848 216.84 79.07L222.93 76.23C222.93 76.23 224.81 77.6 225.04 77.71C226.051 78.1404 227.142 78.3485 228.24 78.32C230.627 78.3763 233.014 78.2425 235.38 77.92C240.49 77.19 245.38 75.32 250.15 73.46C249.996 74.9385 249.356 76.3241 248.33 77.4L263.86 80.4C266.135 83.5276 267.968 86.953 269.31 90.58C270.384 93.4149 271.089 96.3757 271.41 99.39C271.826 103.488 271.442 107.628 270.28 111.58C271.336 110.775 272.261 109.81 273.02 108.72C274.424 109.695 275.978 110.435 277.62 110.91C277.962 111.037 278.332 111.068 278.69 111C279.45 110.79 279.61 109.89 279.69 109.17C280.31 102.72 285.11 97.27 287.31 91.11C289.98 83.65 288.63 75.26 284.55 68.35C283.341 66.1605 281.698 64.2412 279.72 62.71C272.57 57.47 262.41 59.87 254.25 57.13C250.37 55.83 247.25 53.36 243.54 51.73C239.42 49.98 234.26 49.35 229.77 49.27Z" fill="url(#paint9_linear)"/>
<path d="M283.49 122.99C290.123 122.99 295.5 116.359 295.5 108.18C295.5 100.001 290.123 93.37 283.49 93.37C276.857 93.37 271.48 100.001 271.48 108.18C271.48 116.359 276.857 122.99 283.49 122.99Z" fill="#F6AD55"/>
<path d="M283.49 122.99C290.123 122.99 295.5 116.359 295.5 108.18C295.5 100.001 290.123 93.37 283.49 93.37C276.857 93.37 271.48 100.001 271.48 108.18C271.48 116.359 276.857 122.99 283.49 122.99Z" fill="url(#paint10_linear)"/>
<path d="M288.09 122.99C294.723 122.99 300.1 116.359 300.1 108.18C300.1 100.001 294.723 93.37 288.09 93.37C281.457 93.37 276.08 100.001 276.08 108.18C276.08 116.359 281.457 122.99 288.09 122.99Z" fill="#F6AD55"/>
<path d="M288.18 94.55L282.18 95.19L280.75 95.34L274.75 65.81C271.63 54.13 264 45.15 254.43 41.67C252.948 41.1532 251.372 40.9655 249.81 41.12L245.72 41.49L247.72 40.96L251.72 39.9C252.97 39.5552 254.264 39.3968 255.56 39.43C266.24 39.82 276.37 48.43 280.04 60.77L288.18 94.55Z" fill="#F6AD55"/>
<path d="M288.18 94.55L282.18 95.19L280.75 95.34L274.75 65.81C271.63 54.13 264 45.15 254.43 41.67C252.948 41.1532 251.372 40.9655 249.81 41.12L245.72 41.49L247.72 40.96L251.72 39.9C252.97 39.5552 254.264 39.3968 255.56 39.43C266.24 39.82 276.37 48.43 280.04 60.77L288.18 94.55Z" fill="url(#paint11_linear)"/>
<path d="M288.18 94.55L282.18 95.19L276.18 65.59C273.01 53.79 265.31 44.74 255.65 41.23C254.155 40.6943 252.559 40.5029 250.98 40.67L247.72 40.96L251.72 39.9C252.97 39.5552 254.264 39.3968 255.56 39.43C266.24 39.82 276.37 48.43 280.04 60.77L288.18 94.55Z" fill="#F6AD55"/>
<path d="M208.7 77.55C210.47 74.05 214.31 71.97 218.18 71.34C222.05 70.71 226.01 71.29 229.88 71.88C226.13 74.88 215.66 79.35 215.46 80.15C215.319 81.5658 215.302 82.9913 215.41 84.41C215.55 86.47 215.62 88.63 215.61 90.69C214.644 89.7439 213.562 88.924 212.39 88.25C211.382 87.8615 210.464 87.273 209.69 86.52C208.678 85.2791 208.047 83.7724 207.871 82.1811C207.696 80.5898 207.983 78.9816 208.7 77.55V77.55Z" fill="url(#paint12_linear)"/>
<path d="M259.63 144.08C255.112 143.989 250.632 143.241 246.33 141.86C245.821 141.707 245.393 141.359 245.141 140.891C244.889 140.423 244.832 139.874 244.985 139.365C245.137 138.856 245.486 138.428 245.954 138.176C246.422 137.924 246.971 137.867 247.48 138.02C257.78 141.12 265.53 140.71 270.48 136.8C277.22 131.51 276.78 121.43 276.78 121.33C276.753 120.8 276.939 120.28 277.295 119.886C277.651 119.493 278.15 119.257 278.68 119.23C279.21 119.203 279.73 119.389 280.124 119.745C280.517 120.101 280.753 120.6 280.78 121.13C280.78 121.62 281.31 133.4 272.95 139.96C269.47 142.7 265.03 144.073 259.63 144.08Z" fill="#F6AD55"/>
<path d="M259.63 144.08C255.112 143.989 250.632 143.241 246.33 141.86C245.821 141.707 245.393 141.359 245.141 140.891C244.889 140.423 244.832 139.874 244.985 139.365C245.137 138.856 245.486 138.428 245.954 138.176C246.422 137.924 246.971 137.867 247.48 138.02C257.78 141.12 265.53 140.71 270.48 136.8C277.22 131.51 276.78 121.43 276.78 121.33C276.753 120.8 276.939 120.28 277.295 119.886C277.651 119.493 278.15 119.257 278.68 119.23C279.21 119.203 279.73 119.389 280.124 119.745C280.517 120.101 280.753 120.6 280.78 121.13C280.78 121.62 281.31 133.4 272.95 139.96C269.47 142.7 265.03 144.073 259.63 144.08Z" fill="url(#paint13_linear)"/>
<path d="M247.37 134.64C248.517 135.217 249.416 136.19 249.9 137.38C250.34 139.08 249.02 140.71 247.66 141.82C246.491 142.862 245.053 143.555 243.51 143.82C241.25 144.09 239.09 142.87 237.21 141.58C236.161 140.94 235.266 140.076 234.59 139.05C232.85 135.99 235.1 132.05 238.05 130.75C241.32 129.34 244.8 132.95 247.37 134.64Z" fill="#F6AD55"/>
<path d="M247.37 134.64C248.517 135.217 249.416 136.19 249.9 137.38C250.34 139.08 249.02 140.71 247.66 141.82C246.491 142.862 245.053 143.555 243.51 143.82C241.25 144.09 239.09 142.87 237.21 141.58C236.161 140.94 235.266 140.076 234.59 139.05C232.85 135.99 235.1 132.05 238.05 130.75C241.32 129.34 244.8 132.95 247.37 134.64Z" fill="url(#paint14_linear)"/>
</g>
<defs>
<linearGradient id="paint0_linear" x1="266.71" y1="205.35" x2="198.21" y2="208.36" gradientUnits="userSpaceOnUse">
<stop offset="0.01"/>
<stop offset="1" stop-opacity="0"/>
</linearGradient>
<linearGradient id="paint1_linear" x1="38622.3" y1="56784.2" x2="12953.9" y2="40620" gradientUnits="userSpaceOnUse">
<stop offset="0.01"/>
<stop offset="1" stop-opacity="0"/>
</linearGradient>
<linearGradient id="paint2_linear" x1="36568" y1="5297.71" x2="36570.6" y2="5767.47" gradientUnits="userSpaceOnUse">
<stop offset="0.01" stop-color="#9A7B57"/>
<stop offset="1" stop-opacity="0"/>
</linearGradient>
<linearGradient id="paint3_linear" x1="5943.68" y1="2939.08" x2="5856.55" y2="3769.76" gradientUnits="userSpaceOnUse">
<stop offset="0.01"/>
<stop offset="1" stop-opacity="0"/>
</linearGradient>
<linearGradient id="paint4_linear" x1="249.72" y1="167.25" x2="270.89" y2="187.29" gradientUnits="userSpaceOnUse">
<stop offset="0.02" stop-color="white" stop-opacity="0"/>
<stop offset="0.58" stop-color="white" stop-opacity="0.39"/>
<stop offset="1" stop-color="white"/>
</linearGradient>
<linearGradient id="paint5_linear" x1="38682.7" y1="13711.8" x2="32045.8" y2="33536.2" gradientUnits="userSpaceOnUse">
<stop offset="0.01"/>
<stop offset="1" stop-opacity="0"/>
</linearGradient>
<linearGradient id="paint6_linear" x1="177.25" y1="357.75" x2="115.15" y2="184.99" gradientUnits="userSpaceOnUse">
<stop offset="0.01" stop-color="#F6AD55"/>
<stop offset="0.09" stop-color="#F6AD55" stop-opacity="0.82"/>
<stop offset="1" stop-color="#FFAF50" stop-opacity="0"/>
</linearGradient>
<linearGradient id="paint7_linear" x1="7439.09" y1="832.797" x2="7449.59" y2="1097.08" gradientUnits="userSpaceOnUse">
<stop offset="0.01"/>
<stop offset="1" stop-opacity="0"/>
</linearGradient>
<linearGradient id="paint8_linear" x1="5252.39" y1="2489.33" x2="4906.88" y2="3587.69" gradientUnits="userSpaceOnUse">
<stop offset="0.01"/>
<stop offset="1" stop-opacity="0"/>
</linearGradient>
<linearGradient id="paint9_linear" x1="23018.4" y1="5957.91" x2="21940.3" y2="7121.67" gradientUnits="userSpaceOnUse">
<stop offset="0.01"/>
<stop offset="1" stop-opacity="0"/>
</linearGradient>
<linearGradient id="paint10_linear" x1="7131.35" y1="3285.22" x2="6782.06" y2="3341.87" gradientUnits="userSpaceOnUse">
<stop offset="0.01"/>
<stop offset="1" stop-opacity="0"/>
</linearGradient>
<linearGradient id="paint11_linear" x1="12627.1" y1="4990.64" x2="11149.3" y2="5478.79" gradientUnits="userSpaceOnUse">
<stop offset="0.01"/>
<stop offset="1" stop-opacity="0"/>
</linearGradient>
<linearGradient id="paint12_linear" x1="5097.39" y1="2492.13" x2="5133.56" y2="1911.69" gradientUnits="userSpaceOnUse">
<stop offset="0.01"/>
<stop offset="1" stop-opacity="0"/>
</linearGradient>
<linearGradient id="paint13_linear" x1="9648.1" y1="3848.1" x2="9844.99" y2="4432.43" gradientUnits="userSpaceOnUse">
<stop offset="0.02" stop-color="white" stop-opacity="0"/>
<stop offset="0.58" stop-color="white" stop-opacity="0.39"/>
<stop offset="0.68" stop-color="white" stop-opacity="0.68"/>
<stop offset="1" stop-color="white"/>
</linearGradient>
<linearGradient id="paint14_linear" x1="4252.05" y1="2230.64" x2="4103.44" y2="2587.62" gradientUnits="userSpaceOnUse">
<stop offset="0.01"/>
<stop offset="1" stop-opacity="0"/>
</linearGradient>
<clipPath id="clip0">
<rect width="406.39" height="320.69" fill="white"/>
</clipPath>
</defs>
</svg>
