<svg id="Layer_1" data-name="Layer 1" xmlns="http://www.w3.org/2000/svg" xmlns:xlink="http://www.w3.org/1999/xlink" viewBox="0 0 327.52 350.94"><defs><linearGradient id="linear-gradient" x1="236.81" y1="321.07" x2="241.88" y2="655.56" gradientUnits="userSpaceOnUse"><stop offset="0" stop-opacity="0"/><stop offset="0.91" stop-opacity="0.8"/><stop offset="1"/></linearGradient><linearGradient id="linear-gradient-2" x1="195.49" y1="80.7" x2="239.72" y2="80.7" gradientUnits="userSpaceOnUse"><stop offset="0" stop-color="#ecc4d7"/><stop offset="0.42" stop-color="#efd4d1"/><stop offset="1" stop-color="#f2eac9"/></linearGradient><linearGradient id="linear-gradient-3" x1="186.61" y1="145.02" x2="382.01" y2="170.36" xlink:href="#linear-gradient"/><linearGradient id="linear-gradient-4" x1="184.17" y1="267.23" x2="317.91" y2="267.23" xlink:href="#linear-gradient"/><linearGradient id="linear-gradient-5" x1="238.13" y1="143.74" x2="263.9" y2="143.74" xlink:href="#linear-gradient-2"/><linearGradient id="linear-gradient-6" x1="181.47" y1="355.12" x2="195.25" y2="355.12" xlink:href="#linear-gradient-2"/><linearGradient id="linear-gradient-7" x1="313.75" y1="314.46" x2="328.51" y2="314.46" xlink:href="#linear-gradient-2"/><linearGradient id="linear-gradient-8" x1="156.85" y1="125.85" x2="241.35" y2="125.85" xlink:href="#linear-gradient-2"/><linearGradient id="linear-gradient-9" x1="156.93" y1="123.22" x2="237.74" y2="123.22" gradientUnits="userSpaceOnUse"><stop offset="0" stop-color="#fff" stop-opacity="0"/><stop offset="0.84" stop-color="#fff" stop-opacity="0.84"/><stop offset="0.97" stop-color="#fff"/></linearGradient><linearGradient id="linear-gradient-10" x1="218.9" y1="377.4" x2="156.42" y2="94.88" xlink:href="#linear-gradient"/><linearGradient id="linear-gradient-11" x1="230.77" y1="245.45" x2="317.91" y2="245.45" xlink:href="#linear-gradient"/><linearGradient id="linear-gradient-12" x1="259.17" y1="138.69" x2="120.08" y2="187.68" xlink:href="#linear-gradient"/><linearGradient id="linear-gradient-13" x1="145.77" y1="365.45" x2="192.63" y2="365.45" xlink:href="#linear-gradient"/><linearGradient id="linear-gradient-14" x1="342.82" y1="304.36" x2="329.68" y2="385.07" xlink:href="#linear-gradient"/><linearGradient id="linear-gradient-15" x1="221.55" y1="74.61" x2="225.08" y2="74.61" xlink:href="#linear-gradient-2"/><linearGradient id="linear-gradient-16" x1="228.42" y1="183.47" x2="227.58" y2="196.92" gradientTransform="translate(41.17 -40.67) rotate(11.2)" xlink:href="#linear-gradient"/><linearGradient id="linear-gradient-17" x1="227.74" y1="165.96" x2="228.58" y2="225.79" gradientTransform="translate(41.09 -40.68) rotate(11.2)" xlink:href="#linear-gradient"/></defs><title>65. Run</title><circle cx="163.76" cy="177.34" r="163.76" fill="#f6ad55" opacity="0.15"/><path d="M186,371.45c-10.74.93-21.53-.36-32.31-.45-19.67-.16-39.13,3.69-58.42,7.52-2.34.47-5.32,1.81-4.89,4.16.25,1.33,1.56,2.15,2.77,2.77,24.32,12.46,53.26,9.56,80.54,8,67.45-3.9,135.38,2.23,202.54-5.14,3.07-.33,6.55-1,8.14-3.6,1.83-3.05-.13-7.23-3.19-9s-6.8-1.89-10.36-1.92l-51.34-.41,27.19-16.65c-6.07-3.53-13.62-2.79-20.6-1.93-26.61,3.26-54.25,9.12-81.07,9.13C224.26,363.89,206.56,368,186,371.45Z" transform="translate(-58.62 -43.95)" fill="url(#linear-gradient)"/><path d="M201.6,60.86s0,12.25-5,12.69a3.28,3.28,0,0,0,0,4.81c2.41,2.63,2.85,10.94,3.5,12.91s9,2.63,15.54,1.1,4.59,17.06,4.59,17.06,9.19-.88,14.44-5.69l-1.75-18.59s9.84-12,5.91-19.69S228.36,49.71,217.6,52.55,202.33,54.18,201.6,60.86Z" transform="translate(-58.62 -43.95)" fill="url(#linear-gradient-2)"/><path d="M209.54,45.94s-11,5.73-9.48,10.33,9,6.56,11.6,11.59,4.59,8.75,4.59,8.75,2.41-2.4,2.3-2.84,2.3-5.58,5.14-4.48,1.75,7.32-.76,9.07,3.5,7.11,3.5,7.11l3.71,2.63s2-.11,5.22-2.74,9.19-8,8.31-14a93.2,93.2,0,0,0-2.92-12.68c-.14-.44-1.91-7-2.62-7.88C228.83,39.1,209.54,45.94,209.54,45.94Z" transform="translate(-58.62 -43.95)"/><path d="M240.54,53.42c1.76-3.83,10-5.11,15.64-2.4,1.83.87,3.41,2.55,6.56,5.91,5.33,5.67,6.19,8.57,10.5,10.5,2.25,1,4.54,1.33,4.49,1.64-.09.51-6.36-1.68-8.86.87-2.19,2.23.7,5.81.54,13.24,0,2-.32,10.17-5.79,15.31-2.75,2.57-6.49,4.11-7.44,3.17-1.18-1.16,2.64-5.41,1.09-7.54s-5.82.11-7.55-2.19c-.69-.93-.44-1.89-.32-4.27,0,0,.06-1.23-.44-8.64-.21-3.14-1.86-7.21-5.14-15.2C240.6,56,239.82,55,240.54,53.42Z" transform="translate(-58.62 -43.95)"/><path d="M220.45,102.43s16.07-5.84,22.05,1-1.43,30.92-1.15,39.09-3.2,30.62,0,37.33-23.35,24.21-29.76,19-6.8-9.48-7.09-10.35-.91-41.26-1.5-42.42-3.82-8.17-2.93-12S217.07,111,220.45,102.43Z" transform="translate(-58.62 -43.95)" fill="#f6ad55"/><path d="M219.64,79.78s-6.12,11.85-5.49,22.16-9,23.91-9,23.91-4.33,6.71-4.76,13.27.75,45.33,18,47.62,8.52.91,8.52.91" transform="translate(-58.62 -43.95)" fill="none" stroke="#000" stroke-linecap="round" stroke-miterlimit="10"/><path d="M241.35,179.87c2.8,5.86-17.11,20-26.46,19.93,7.52-4.62,14.07-11.13,12.39-14.66-3.2-6.71.28-29.17,0-37.34s7.13-32.23,1.15-39.08c-2.2-2.52-5.76-3.33-9.39-3.34a27.26,27.26,0,0,0,1.41-2.95s16.07-5.84,22.05,1-1.43,30.92-1.15,39.09S238.15,173.16,241.35,179.87Z" transform="translate(-58.62 -43.95)" fill="url(#linear-gradient-3)"/><path d="M317.91,304.42,313,317.63,255.63,296l-1.25-.61-.42-.2c-.37-.19-.79-.4-1.25-.65l-1.85-1,0,0c-.85-.46-1.78-1-2.79-1.55l-.66-.39a123.59,123.59,0,0,1-10.64-6.92c-.25-.18-.5-.36-.75-.56-.73-.54-1.46-1.1-2.18-1.67q-1.92-1.5-3.75-3.14c-.41-.37-.82-.74-1.22-1.13s-1-.95-1.51-1.45a49.47,49.47,0,0,1-5-5.67l0,0c-.54-.73-1.06-1.47-1.53-2.23-.32-.5-.63-1-.92-1.53,0,0-6.26,19.69-6.26,21.15S210.42,326,198.75,347.3L196.08,354l-.25.61-11.66-5.83,5.25-85.17,17-71s24.38-3.06,34.94-12.69c0,0,8.81,14.88,10.12,17.72s2,23.63-2,36.1,12.83,39.23,17.79,39.81S317.91,304.42,317.91,304.42Z" transform="translate(-58.62 -43.95)" fill="#f6ad55"/><path d="M317.91,304.42,315.45,311l-2.46,6.6L255.63,296l-1.25-.61-.42-.2c-.37-.19-.79-.4-1.25-.65s-1.18-.61-1.85-1l0,0c-.85-.45-1.79-1-2.79-1.55l-.66-.39a119,119,0,0,1-10.64-6.92c-.25-.18-.5-.36-.75-.56-.73-.53-1.46-1.09-2.18-1.67q-1.92-1.5-3.75-3.14c-.41-.37-.82-.74-1.22-1.13s-1-.95-1.51-1.45a51.49,51.49,0,0,1-5-5.67l0,0c-.53-.73-1.05-1.48-1.53-2.23-.32-.5-.63-1-.92-1.53,0,0-6.26,19.69-6.26,21.15S210.42,326,198.75,347.3L196.08,354l-.25.61-11.66-5.83,5.25-85.17,17-71s13.18-1.65,24.36-6.36a37.34,37.34,0,0,0,10.58-6.33s8.81,14.88,10.12,17.72,2,23.63-2,36.1,12.83,39.23,17.79,39.81S317.91,304.42,317.91,304.42Z" transform="translate(-58.62 -43.95)" fill="url(#linear-gradient-4)"/><path d="M260.46,155.22c-4.73,2.65-20.17,14.59-20.17,14.59l-.83-7.64L238.13,150l4.4-21.93v0l2.07-10.33,17.79,26.07S266.84,151.66,260.46,155.22Z" transform="translate(-58.62 -43.95)" fill="url(#linear-gradient-5)"/><path d="M184.87,349.11l-3.4,7.09S185.7,362,191.75,361l3.5-7.38Z" transform="translate(-58.62 -43.95)" fill="url(#linear-gradient-6)"/><path d="M194,361.81l-1.38,13.06s-2.63,3.2-5,2.33-11.38-2.63-13-2.92-22.61-5.54-27.71-15.75c-1.23-2.46-1.45-4-1-5,1.39-3,9.33.11,12.65.58,4.38.61,13.49,1,13.49,1s7.15-1.5,8.54-.82,2,2,3,3.43,6.85,4.16,8.09,3.28S194,361.81,194,361.81Z" transform="translate(-58.62 -43.95)" fill="#f6ad55"/><path d="M313.75,315.59s6.31,4.51,6.53,7.25,7.87,2.49,8.2-3.63a16.22,16.22,0,0,0-2.52-9.94l-8-4.85Z" transform="translate(-58.62 -43.95)" fill="url(#linear-gradient-7)"/><path d="M343,348.61c-.54,1.08-2.51,2.53-4.24,3.65l0,0-.21.14c-1.45.92-2.67,1.59-2.67,1.59a16.26,16.26,0,0,1-5.55-1.6c-2.33-1.32-1.6-8.46-1.79-10.65s-8.12-11.52-9.44-13.86,1.21-5.06,1.21-5.06l2.63-15.4L324,305.3c1.12-2.14,11.38-1.9,11.38-1.9s2.77.29,4.08,1.9.88,12.1.73,13.56,1.31,12.4,2.77,14.88S344,346.57,343,348.61Z" transform="translate(-58.62 -43.95)" fill="#f6ad55"/><path d="M235.5,121.1s-16.62,28.58-19.69,32.23-12.68,1.31-18.37-1-25.23-6.27-26.55-6.13-8.45.15-9,0-3.94-3.79-4.76-4.23c-.3-.16-.28-.95-.16-2.1.22-2,.72-5,.26-7.52a5.14,5.14,0,0,1,2.91-5.55s6.13,1.75,7.15.44c.68-.87,2.37-1.16,3.7-.83a2.43,2.43,0,0,1,1.55,1c.3.5.81,1.56,1.35,2.72,1,2.22,2.15,4.86,2.15,4.86s21.85,6.33,29.44,3.41,12-26.16,15-34.33S234,96.49,234,96.49a11.78,11.78,0,0,1,3.61,1.35C247.16,103.57,235.5,121.1,235.5,121.1Z" transform="translate(-58.62 -43.95)" fill="url(#linear-gradient-8)"/><path d="M231.9,115.83s-16.63,28.59-19.69,32.23-12.69,1.32-18.38-1-25.23-6.27-26.54-6.12-8.46.14-9,0a6.27,6.27,0,0,1-1.32-1.07c.22-2,.72-5,.26-7.52a5.14,5.14,0,0,1,2.91-5.55s6.13,1.75,7.15.44c.68-.87,2.37-1.16,3.7-.83.77,1.74,1.44,3.3,1.44,3.3l1.46.4c1,2.22,2.15,4.86,2.15,4.86s21.85,6.33,29.44,3.41,12-26.16,15-34.33S234,96.49,234,96.49a11.78,11.78,0,0,1,3.61,1.35C238.93,105.25,231.9,115.83,231.9,115.83Z" transform="translate(-58.62 -43.95)" opacity="0.44" fill="url(#linear-gradient-9)"/><path d="M240.1,52.53a1.72,1.72,0,0,1,1.51-.1c.57.33.6,1.11.64,1.77a18.36,18.36,0,0,0,.52,3.11,3.64,3.64,0,0,1,.1,2,1.21,1.21,0,0,1-1.54.82,1.71,1.71,0,0,1-.71-1.05c-.44-1.22-.89-2.44-1.23-3.69a7.75,7.75,0,0,1-.44-1.89C238.94,52.82,239.55,52.75,240.1,52.53Z" transform="translate(-58.62 -43.95)" fill="#f6ad55"/><path d="M219.89,267.23s-6.26,19.69-6.26,21.15S210.42,326,198.75,347.3L196.08,354l-.83-.35-11.08-4.87,5.25-85.17,17-71Z" transform="translate(-58.62 -43.95)" fill="url(#linear-gradient-10)"/><path d="M317.91,304.42,315.45,311s-46.38-21.57-54.64-28.32-25.9-25.16-24.4-39.8-5.64-56.71-5.64-56.71a37.34,37.34,0,0,0,10.58-6.33s8.81,14.88,10.12,17.72,2,23.63-2,36.1,12.83,39.23,17.79,39.81S317.91,304.42,317.91,304.42Z" transform="translate(-58.62 -43.95)" fill="url(#linear-gradient-11)"/><path d="M250.3,152.81c-2.82,1.41-10.84,9.36-10.84,9.36L238.13,150l4.4-21.93v0s8,12.29,9.45,15.74S253.12,151.4,250.3,152.81Z" transform="translate(-58.62 -43.95)" fill="url(#linear-gradient-12)"/><path d="M192.63,374.87s-2.63,3.2-5,2.33-11.38-2.63-13-2.92-22.61-5.54-27.71-15.75c-1.23-2.46-1.45-4-1-5,1.1,1.84,6.37,9.42,21.25,14.09C184.27,373,192.63,374.87,192.63,374.87Z" transform="translate(-58.62 -43.95)" fill="url(#linear-gradient-13)"/><path d="M343,348.61c-.54,1.08-2.51,2.53-4.24,3.65,2.9-1.74,1.09-18.12-.79-23.56s-2.55-25.3-2.55-25.3,2.77.29,4.08,1.9.88,12.1.73,13.56,1.31,12.4,2.77,14.88S344,346.57,343,348.61Z" transform="translate(-58.62 -43.95)" fill="url(#linear-gradient-14)"/><path d="M221.11,74.49s0-2.3.94-2.77,2.07.61,1.55,1.93-1.69,4.41-2.49,3.89S219.52,77.35,221.11,74.49Z" transform="translate(-58.62 -43.95)" fill="url(#linear-gradient-15)"/><circle cx="163.98" cy="32.52" r="1.66" fill="none"/><circle cx="163.45" cy="32.52" r="1.66"/><circle cx="163.58" cy="32.52" r="0.97" fill="#f6ad55"/><path d="M220.44,76.61l-1,2.74s0,.72.63.52A15.2,15.2,0,0,0,222.59,78Z" transform="translate(-58.62 -43.95)"/><rect x="221.96" y="182.09" width="12.15" height="15.2" rx="3.81" transform="translate(-91.11 3.94) rotate(-11.2)" fill="#f6ad55"/><rect x="221.96" y="182.09" width="12.15" height="15.2" rx="3.81" transform="translate(-91.11 3.94) rotate(-11.2)" fill="url(#linear-gradient-16)"/><rect x="222.85" y="182.77" width="10.43" height="13.04" rx="3.27" transform="translate(-91.03 3.94) rotate(-11.2)" fill="url(#linear-gradient-17)"/><rect x="222.92" y="184.63" width="9.06" height="3.05" rx="1.53" transform="translate(-90.43 3.76) rotate(-11.2)" fill="#f6ad55"/><rect x="223.52" y="184.85" width="7.71" height="2.6" rx="1.3" transform="translate(-90.44 3.74) rotate(-11.2)" fill="#fff" opacity="0.62"/></svg>