<?xml version="1.0" standalone="no"?>
<!DOCTYPE svg PUBLIC "-//W3C//DTD SVG 20010904//EN"
 "http://www.w3.org/TR/2001/REC-SVG-20010904/DTD/svg10.dtd">
<svg version="1.0" xmlns="http://www.w3.org/2000/svg"
 width="300.000000pt" height="300.000000pt" viewBox="0 0 300.000000 300.000000"
 preserveAspectRatio="xMidYMid meet">
<metadata>
Created by potrace 1.11, written by Peter Selinger 2001-2013
</metadata>
<g transform="translate(0.000000,300.000000) scale(0.100000,-0.100000)"
fill="#000000" stroke="none">
<path d="M1369 2995 c-2 -2 -31 -6 -64 -9 -81 -9 -168 -30 -278 -67 -313 -106
-583 -315 -769 -594 -163 -247 -246 -526 -245 -829 0 -71 3 -147 8 -170 4 -22
10 -65 14 -95 8 -64 58 -236 87 -301 59 -131 81 -171 148 -270 220 -326 556
-550 946 -631 150 -31 425 -33 569 -4 118 24 242 60 260 76 5 5 15 9 22 9 24
0 188 86 274 143 312 208 543 537 626 893 10 44 19 90 18 104 l0 25 -247 0
c-281 0 -259 -8 -237 85 9 39 13 223 6 330 l-2 35 243 0 c182 0 242 3 242 12
0 29 -33 164 -59 242 -32 93 -99 242 -116 253 -5 4 -7 8 -3 8 11 0 -83 138
-141 208 -236 283 -534 459 -896 529 -70 13 -396 28 -406 18z"/>
</g>
</svg>
